<svg xmlns="http://www.w3.org/2000/svg" xmlns:xlink="http://www.w3.org/1999/xlink" width="50" zoomAndPan="magnify" viewBox="0 0 37.5 37.499999" height="50" preserveAspectRatio="xMidYMid meet" version="1.0"><defs><clipPath id="5221d2b08c"><path d="M 5 3 L 33.707031 3 L 33.707031 32.5625 L 5 32.5625 Z M 5 3 " clip-rule="nonzero"/></clipPath></defs><g clip-path="url(#5221d2b08c)"><path fill="#000000" d="M 7.792969 24.8125 C 7.914062 25.03125 7.84375 25.3125 7.628906 25.4375 C 7.558594 25.480469 7.484375 25.5 7.40625 25.5 C 7.253906 25.5 7.101562 25.417969 7.019531 25.273438 C 5.484375 22.574219 4.839844 19.503906 5.160156 16.394531 C 5.558594 12.507812 7.417969 9.015625 10.390625 6.558594 C 13.359375 4.097656 17.089844 2.96875 20.890625 3.378906 C 23.441406 3.652344 25.835938 4.605469 27.878906 6.148438 L 27.570312 5.035156 C 27.5 4.792969 27.640625 4.539062 27.875 4.472656 C 28.113281 4.402344 28.363281 4.542969 28.429688 4.785156 L 29.132812 7.300781 C 29.167969 7.433594 29.144531 7.578125 29.0625 7.691406 C 28.980469 7.808594 28.855469 7.875 28.71875 7.882812 L 26.164062 7.976562 C 26.15625 7.976562 26.152344 7.976562 26.144531 7.976562 C 25.90625 7.976562 25.707031 7.78125 25.699219 7.535156 C 25.691406 7.28125 25.882812 7.070312 26.128906 7.0625 L 27.515625 7.011719 C 25.566406 5.492188 23.257812 4.550781 20.796875 4.289062 C 17.234375 3.90625 13.734375 4.960938 10.949219 7.265625 C 8.164062 9.570312 6.425781 12.847656 6.050781 16.488281 C 5.75 19.40625 6.351562 22.285156 7.792969 24.8125 Z M 33.707031 18.023438 L 33.707031 17.796875 C 33.6875 15.261719 33.027344 12.792969 31.765625 10.578125 C 31.644531 10.359375 31.367188 10.285156 31.15625 10.410156 C 30.941406 10.539062 30.871094 10.816406 30.996094 11.035156 C 32.433594 13.566406 33.035156 16.441406 32.734375 19.359375 C 31.960938 26.878906 25.347656 32.351562 17.988281 31.5625 C 15.53125 31.296875 13.21875 30.359375 11.269531 28.839844 L 12.65625 28.789062 C 12.902344 28.777344 13.09375 28.566406 13.085938 28.316406 C 13.078125 28.0625 12.875 27.863281 12.625 27.875 L 10.066406 27.96875 C 9.929688 27.972656 9.804688 28.042969 9.722656 28.15625 C 9.640625 28.269531 9.617188 28.414062 9.652344 28.550781 L 10.355469 31.0625 C 10.414062 31.265625 10.59375 31.394531 10.785156 31.394531 C 10.828125 31.394531 10.871094 31.390625 10.910156 31.378906 C 11.144531 31.308594 11.285156 31.054688 11.21875 30.8125 L 10.90625 29.703125 C 12.949219 31.242188 15.34375 32.195312 17.894531 32.46875 C 18.40625 32.527344 18.914062 32.550781 19.421875 32.550781 C 22.683594 32.550781 25.824219 31.421875 28.394531 29.292969 C 31.367188 26.835938 33.226562 23.339844 33.625 19.457031 C 33.675781 18.976562 33.703125 18.5 33.707031 18.023438 Z M 13.214844 22.164062 C 13.214844 22.164062 13.976562 20.707031 13.980469 20.707031 C 14.164062 20.347656 14.03125 19.882812 13.679688 19.695312 C 13.328125 19.503906 12.878906 19.640625 12.691406 20 L 11.929688 21.457031 C 11.738281 21.820312 11.875 22.273438 12.226562 22.46875 C 12.582031 22.660156 13.027344 22.523438 13.214844 22.164062 Z M 9.070312 16.800781 C 9.773438 17.125 11.085938 17.726562 11.328125 17.824219 C 11.929688 18.0625 12.097656 18.628906 12.195312 19.109375 C 12.703125 18.625 13.476562 18.496094 14.121094 18.851562 C 14.511719 19.0625 14.796875 19.421875 14.929688 19.855469 C 14.957031 19.949219 14.976562 20.039062 14.984375 20.132812 C 15.363281 20.058594 15.742188 20.117188 16.082031 20.300781 C 16.472656 20.515625 16.757812 20.871094 16.890625 21.308594 C 16.890625 21.320312 16.894531 21.332031 16.898438 21.339844 C 16.90625 21.339844 16.917969 21.335938 16.925781 21.332031 C 17.355469 21.199219 17.804688 21.246094 18.199219 21.457031 C 18.585938 21.671875 18.875 22.027344 19.003906 22.464844 C 19.007812 22.476562 19.007812 22.488281 19.011719 22.5 C 19.023438 22.496094 19.03125 22.492188 19.042969 22.488281 C 19.46875 22.355469 19.921875 22.402344 20.3125 22.613281 C 20.5 22.71875 20.664062 22.855469 20.800781 23.015625 L 22.609375 24.039062 C 22.964844 24.238281 23.410156 24.105469 23.605469 23.746094 C 23.796875 23.390625 23.664062 22.933594 23.3125 22.730469 L 20.75 21.257812 C 20.527344 21.125 20.445312 20.835938 20.574219 20.605469 C 20.699219 20.375 20.984375 20.292969 21.210938 20.421875 L 24.449219 22.273438 C 24.804688 22.46875 25.246094 22.339844 25.445312 21.976562 C 25.632812 21.621094 25.503906 21.164062 25.152344 20.960938 C 25.140625 20.953125 22.589844 19.480469 22.589844 19.480469 C 22.363281 19.351562 22.285156 19.058594 22.410156 18.828125 C 22.539062 18.597656 22.824219 18.515625 23.050781 18.648438 L 26.023438 20.363281 C 26.1875 20.457031 26.382812 20.480469 26.566406 20.425781 C 26.761719 20.371094 26.917969 20.242188 27.011719 20.066406 C 27.207031 19.710938 27.074219 19.253906 26.71875 19.046875 L 22.570312 16.632812 C 21.878906 16.226562 21.003906 16.589844 19.992188 17.007812 C 19.226562 17.324219 18.363281 17.683594 17.492188 17.683594 C 16.597656 17.683594 15.695312 17.308594 14.863281 16.140625 C 14.789062 16.03125 14.757812 15.890625 14.789062 15.757812 C 14.816406 15.625 14.894531 15.511719 15.011719 15.445312 C 16.238281 14.726562 17.273438 13.9375 18.078125 13.105469 C 18.269531 12.90625 18.460938 12.726562 18.65625 12.558594 C 17.785156 12.179688 17.03125 12.359375 16.246094 12.550781 C 15.445312 12.742188 14.621094 12.941406 13.769531 12.460938 L 11.453125 11.371094 L 8.976562 16.757812 C 9.007812 16.769531 9.039062 16.785156 9.070312 16.800781 Z M 19.757812 12.898438 C 19.421875 13.136719 19.082031 13.433594 18.746094 13.777344 C 17.984375 14.5625 17.050781 15.304688 15.953125 15.988281 C 17.070312 17.183594 18.269531 16.6875 19.640625 16.121094 C 20.386719 15.8125 21.148438 15.496094 21.890625 15.496094 C 22.277344 15.496094 22.664062 15.582031 23.03125 15.800781 L 27.183594 18.214844 C 27.359375 18.320312 27.507812 18.449219 27.636719 18.601562 L 29.835938 17.644531 L 27.6875 11.992188 L 26.042969 12.894531 C 25.164062 13.359375 24.335938 13.011719 23.535156 12.679688 C 22.464844 12.230469 21.355469 11.769531 19.757812 12.898438 Z M 21.816406 24.6875 L 21.808594 24.679688 L 21.179688 24.328125 C 21.15625 24.535156 21.09375 24.734375 20.996094 24.921875 L 20.589844 25.703125 L 21.109375 25.996094 C 21.464844 26.195312 21.910156 26.0625 22.105469 25.703125 C 22.296875 25.34375 22.167969 24.886719 21.816406 24.6875 Z M 19.441406 25.867188 C 19.441406 25.867188 20.167969 24.472656 20.167969 24.46875 C 20.355469 24.117188 20.21875 23.648438 19.871094 23.460938 C 19.519531 23.269531 19.066406 23.410156 18.882812 23.765625 L 18.152344 25.160156 C 17.960938 25.523438 18.09375 25.976562 18.453125 26.171875 C 18.804688 26.367188 19.25 26.230469 19.441406 25.867188 Z M 17.21875 24.910156 C 17.21875 24.910156 18.054688 23.316406 18.054688 23.3125 C 18.242188 22.957031 18.105469 22.492188 17.753906 22.304688 C 17.40625 22.113281 16.953125 22.25 16.765625 22.609375 L 15.929688 24.203125 C 15.742188 24.566406 15.875 25.019531 16.230469 25.214844 C 16.578125 25.40625 17.035156 25.265625 17.21875 24.910156 Z M 14.910156 24.128906 C 14.910156 24.128906 15.9375 22.160156 15.9375 22.160156 C 16.125 21.800781 15.992188 21.335938 15.640625 21.144531 C 15.292969 20.957031 14.839844 21.09375 14.652344 21.449219 L 13.621094 23.425781 C 13.429688 23.789062 13.5625 24.242188 13.917969 24.4375 C 14.089844 24.53125 14.289062 24.550781 14.476562 24.492188 C 14.664062 24.433594 14.816406 24.304688 14.910156 24.128906 Z M 14.910156 24.128906 " fill-opacity="1" fill-rule="evenodd"/></g></svg>