<svg xmlns="http://www.w3.org/2000/svg" xmlns:xlink="http://www.w3.org/1999/xlink" width="50" zoomAndPan="magnify" viewBox="0 0 37.5 37.499999" height="50" preserveAspectRatio="xMidYMid meet" version="1.0"><defs><clipPath id="0cdd3b4934"><path d="M 4.367188 3.699219 L 32.492188 3.699219 L 32.492188 31.824219 L 4.367188 31.824219 Z M 4.367188 3.699219 " clip-rule="nonzero"/></clipPath></defs><path fill="#000000" d="M 13.21875 11.957031 L 12.257812 11.957031 C 11.910156 11.957031 11.59375 12.097656 11.367188 12.328125 C 11.140625 12.554688 10.996094 12.871094 10.996094 13.21875 L 10.996094 24.371094 C 10.996094 24.714844 11.140625 25.03125 11.367188 25.257812 C 11.59375 25.488281 11.910156 25.628906 12.257812 25.628906 L 24.601562 25.628906 C 24.949219 25.628906 25.261719 25.488281 25.492188 25.257812 C 25.71875 25.03125 25.863281 24.714844 25.863281 24.371094 L 25.863281 13.21875 C 25.863281 12.871094 25.71875 12.554688 25.492188 12.328125 C 25.261719 12.097656 24.949219 11.957031 24.601562 11.957031 L 23.640625 11.957031 L 23.640625 13.035156 C 23.640625 13.304688 23.53125 13.550781 23.351562 13.730469 C 23.175781 13.90625 22.929688 14.019531 22.65625 14.019531 L 22.496094 14.019531 C 22.226562 14.019531 21.980469 13.90625 21.800781 13.730469 C 21.625 13.550781 21.515625 13.304688 21.515625 13.035156 L 21.515625 11.957031 L 15.34375 11.957031 L 15.34375 13.035156 C 15.34375 13.304688 15.234375 13.550781 15.054688 13.730469 C 14.878906 13.90625 14.632812 14.019531 14.363281 14.019531 L 14.199219 14.019531 C 13.929688 14.019531 13.683594 13.90625 13.507812 13.730469 C 13.328125 13.550781 13.21875 13.304688 13.21875 13.035156 Z M 12.257812 11.433594 L 13.480469 11.433594 C 13.625 11.433594 13.742188 11.550781 13.742188 11.695312 L 13.742188 13.035156 C 13.742188 13.160156 13.792969 13.273438 13.878906 13.359375 C 13.960938 13.441406 14.074219 13.492188 14.199219 13.492188 L 14.363281 13.492188 C 14.488281 13.492188 14.601562 13.441406 14.6875 13.359375 C 14.769531 13.273438 14.820312 13.160156 14.820312 13.035156 L 14.820312 11.695312 C 14.820312 11.550781 14.9375 11.433594 15.082031 11.433594 L 21.777344 11.433594 C 21.921875 11.433594 22.039062 11.550781 22.039062 11.695312 L 22.039062 13.035156 C 22.039062 13.160156 22.089844 13.273438 22.171875 13.359375 C 22.257812 13.441406 22.371094 13.492188 22.496094 13.492188 L 22.65625 13.492188 C 22.785156 13.492188 22.898438 13.441406 22.980469 13.359375 C 23.066406 13.273438 23.117188 13.160156 23.117188 13.035156 L 23.117188 11.695312 C 23.117188 11.550781 23.234375 11.433594 23.378906 11.433594 L 24.601562 11.433594 C 25.09375 11.433594 25.539062 11.632812 25.863281 11.957031 C 26.183594 12.28125 26.386719 12.726562 26.386719 13.21875 L 26.386719 24.371094 C 26.386719 24.859375 26.183594 25.308594 25.863281 25.628906 C 25.539062 25.953125 25.09375 26.152344 24.601562 26.152344 L 12.257812 26.152344 C 11.765625 26.152344 11.320312 25.953125 10.996094 25.628906 C 10.671875 25.308594 10.472656 24.859375 10.472656 24.371094 L 10.472656 13.21875 C 10.472656 12.726562 10.671875 12.28125 10.996094 11.957031 C 11.320312 11.632812 11.765625 11.433594 12.257812 11.433594 " fill-opacity="1" fill-rule="nonzero"/><path fill="#000000" d="M 10.734375 15.34375 C 10.589844 15.34375 10.472656 15.460938 10.472656 15.605469 C 10.472656 15.75 10.589844 15.867188 10.734375 15.867188 L 26.125 15.867188 C 26.269531 15.867188 26.386719 15.75 26.386719 15.605469 C 26.386719 15.460938 26.269531 15.34375 26.125 15.34375 L 10.734375 15.34375 " fill-opacity="1" fill-rule="nonzero"/><path fill="#000000" d="M 14.363281 9.898438 L 14.199219 9.898438 C 14.074219 9.898438 13.960938 9.949219 13.878906 10.03125 C 13.792969 10.117188 13.742188 10.230469 13.742188 10.355469 L 13.742188 13.035156 C 13.742188 13.160156 13.792969 13.273438 13.878906 13.359375 C 13.960938 13.441406 14.074219 13.492188 14.199219 13.492188 L 14.363281 13.492188 C 14.488281 13.492188 14.601562 13.441406 14.6875 13.359375 C 14.769531 13.273438 14.820312 13.160156 14.820312 13.035156 L 14.820312 10.355469 C 14.820312 10.230469 14.769531 10.117188 14.6875 10.03125 C 14.601562 9.949219 14.488281 9.898438 14.363281 9.898438 Z M 14.199219 9.371094 L 14.363281 9.371094 C 14.632812 9.371094 14.878906 9.484375 15.054688 9.660156 C 15.234375 9.839844 15.34375 10.085938 15.34375 10.355469 L 15.34375 13.035156 C 15.34375 13.304688 15.234375 13.550781 15.054688 13.730469 C 14.878906 13.90625 14.632812 14.019531 14.363281 14.019531 L 14.199219 14.019531 C 13.929688 14.019531 13.683594 13.90625 13.507812 13.730469 C 13.328125 13.550781 13.21875 13.304688 13.21875 13.035156 L 13.21875 10.355469 C 13.21875 10.085938 13.328125 9.839844 13.507812 9.660156 C 13.683594 9.484375 13.929688 9.371094 14.199219 9.371094 " fill-opacity="1" fill-rule="nonzero"/><path fill="#000000" d="M 22.65625 9.898438 L 22.496094 9.898438 C 22.371094 9.898438 22.257812 9.949219 22.171875 10.03125 C 22.089844 10.117188 22.039062 10.230469 22.039062 10.355469 L 22.039062 13.035156 C 22.039062 13.160156 22.089844 13.273438 22.171875 13.359375 C 22.257812 13.441406 22.371094 13.492188 22.496094 13.492188 L 22.65625 13.492188 C 22.785156 13.492188 22.898438 13.441406 22.980469 13.359375 C 23.066406 13.273438 23.117188 13.160156 23.117188 13.035156 L 23.117188 10.355469 C 23.117188 10.230469 23.066406 10.117188 22.980469 10.03125 C 22.898438 9.949219 22.785156 9.898438 22.65625 9.898438 Z M 22.496094 9.371094 L 22.65625 9.371094 C 22.929688 9.371094 23.175781 9.484375 23.351562 9.660156 C 23.53125 9.839844 23.640625 10.085938 23.640625 10.355469 L 23.640625 13.035156 C 23.640625 13.304688 23.53125 13.550781 23.351562 13.730469 C 23.175781 13.90625 22.929688 14.019531 22.65625 14.019531 L 22.496094 14.019531 C 22.226562 14.019531 21.980469 13.90625 21.800781 13.730469 C 21.625 13.550781 21.511719 13.304688 21.511719 13.035156 L 21.511719 10.355469 C 21.511719 10.085938 21.625 9.839844 21.800781 9.660156 C 21.980469 9.484375 22.226562 9.371094 22.496094 9.371094 " fill-opacity="1" fill-rule="nonzero"/><path fill="#000000" d="M 14.960938 17.109375 L 12.761719 17.109375 L 12.761719 18.03125 L 14.960938 18.03125 Z M 12.5 16.585938 L 15.222656 16.585938 C 15.367188 16.585938 15.484375 16.703125 15.484375 16.847656 L 15.484375 18.292969 C 15.484375 18.4375 15.367188 18.554688 15.222656 18.554688 L 12.5 18.554688 C 12.355469 18.554688 12.238281 18.4375 12.238281 18.292969 L 12.238281 16.847656 C 12.238281 16.703125 12.355469 16.585938 12.5 16.585938 " fill-opacity="1" fill-rule="nonzero"/><path fill="#000000" d="M 19.527344 17.109375 L 17.332031 17.109375 L 17.332031 18.03125 L 19.527344 18.03125 Z M 17.066406 16.585938 L 19.789062 16.585938 C 19.933594 16.585938 20.050781 16.703125 20.050781 16.847656 L 20.050781 18.292969 C 20.050781 18.4375 19.933594 18.554688 19.789062 18.554688 L 17.066406 18.554688 C 16.921875 18.554688 16.804688 18.4375 16.804688 18.292969 L 16.804688 16.847656 C 16.804688 16.703125 16.921875 16.585938 17.066406 16.585938 " fill-opacity="1" fill-rule="nonzero"/><path fill="#000000" d="M 24.097656 17.109375 L 21.898438 17.109375 L 21.898438 18.03125 L 24.097656 18.03125 Z M 21.636719 16.585938 L 24.359375 16.585938 C 24.503906 16.585938 24.621094 16.703125 24.621094 16.847656 L 24.621094 18.292969 C 24.621094 18.4375 24.503906 18.554688 24.359375 18.554688 L 21.636719 18.554688 C 21.492188 18.554688 21.375 18.4375 21.375 18.292969 L 21.375 16.847656 C 21.375 16.703125 21.492188 16.585938 21.636719 16.585938 " fill-opacity="1" fill-rule="nonzero"/><path fill="#000000" d="M 14.960938 19.796875 L 12.761719 19.796875 L 12.761719 20.714844 L 14.960938 20.714844 Z M 12.5 19.273438 L 15.222656 19.273438 C 15.367188 19.273438 15.484375 19.390625 15.484375 19.535156 L 15.484375 20.976562 C 15.484375 21.121094 15.367188 21.238281 15.222656 21.238281 L 12.5 21.238281 C 12.355469 21.238281 12.238281 21.121094 12.238281 20.976562 L 12.238281 19.535156 C 12.238281 19.390625 12.355469 19.273438 12.5 19.273438 " fill-opacity="1" fill-rule="nonzero"/><path fill="#000000" d="M 19.527344 19.796875 L 17.332031 19.796875 L 17.332031 20.714844 L 19.527344 20.714844 Z M 17.066406 19.273438 L 19.789062 19.273438 C 19.933594 19.273438 20.050781 19.390625 20.050781 19.535156 L 20.050781 20.976562 C 20.050781 21.121094 19.933594 21.238281 19.789062 21.238281 L 17.066406 21.238281 C 16.921875 21.238281 16.804688 21.121094 16.804688 20.976562 L 16.804688 19.535156 C 16.804688 19.390625 16.921875 19.273438 17.066406 19.273438 " fill-opacity="1" fill-rule="nonzero"/><path fill="#000000" d="M 24.097656 19.796875 L 21.898438 19.796875 L 21.898438 20.714844 L 24.097656 20.714844 Z M 21.636719 19.273438 L 24.359375 19.273438 C 24.503906 19.273438 24.621094 19.390625 24.621094 19.535156 L 24.621094 20.976562 C 24.621094 21.121094 24.503906 21.238281 24.359375 21.238281 L 21.636719 21.238281 C 21.492188 21.238281 21.375 21.121094 21.375 20.976562 L 21.375 19.535156 C 21.375 19.390625 21.492188 19.273438 21.636719 19.273438 " fill-opacity="1" fill-rule="nonzero"/><path fill="#000000" d="M 14.960938 22.480469 L 12.761719 22.480469 L 12.761719 23.398438 L 14.960938 23.398438 Z M 12.5 21.957031 L 15.222656 21.957031 C 15.367188 21.957031 15.484375 22.074219 15.484375 22.21875 L 15.484375 23.664062 C 15.484375 23.808594 15.367188 23.925781 15.222656 23.925781 L 12.5 23.925781 C 12.355469 23.925781 12.238281 23.808594 12.238281 23.664062 L 12.238281 22.21875 C 12.238281 22.074219 12.355469 21.957031 12.5 21.957031 " fill-opacity="1" fill-rule="nonzero"/><path fill="#000000" d="M 19.527344 22.480469 L 17.332031 22.480469 L 17.332031 23.398438 L 19.527344 23.398438 Z M 17.066406 21.957031 L 19.789062 21.957031 C 19.933594 21.957031 20.050781 22.074219 20.050781 22.21875 L 20.050781 23.664062 C 20.050781 23.808594 19.933594 23.925781 19.789062 23.925781 L 17.066406 23.925781 C 16.921875 23.925781 16.804688 23.808594 16.804688 23.664062 L 16.804688 22.21875 C 16.804688 22.074219 16.921875 21.957031 17.066406 21.957031 " fill-opacity="1" fill-rule="nonzero"/><path fill="#000000" d="M 24.097656 22.480469 L 21.898438 22.480469 L 21.898438 23.398438 L 24.097656 23.398438 Z M 21.636719 21.957031 L 24.359375 21.957031 C 24.503906 21.957031 24.621094 22.074219 24.621094 22.21875 L 24.621094 23.664062 C 24.621094 23.808594 24.503906 23.925781 24.359375 23.925781 L 21.636719 23.925781 C 21.492188 23.925781 21.375 23.808594 21.375 23.664062 L 21.375 22.21875 C 21.375 22.074219 21.492188 21.957031 21.636719 21.957031 " fill-opacity="1" fill-rule="nonzero"/><g clip-path="url(#0cdd3b4934)"><path fill="#000000" d="M 14.0625 5.109375 C 9.503906 5.109375 5.773438 8.839844 5.773438 13.398438 L 5.773438 22.128906 C 5.773438 26.6875 9.503906 30.417969 14.0625 30.417969 L 22.792969 30.417969 C 27.355469 30.417969 31.085938 26.6875 31.085938 22.128906 L 31.085938 13.398438 C 31.085938 8.839844 27.355469 5.109375 22.792969 5.109375 Z M 14.0625 3.703125 L 22.792969 3.703125 C 28.125 3.703125 32.488281 8.066406 32.488281 13.398438 L 32.488281 22.128906 C 32.488281 27.460938 28.125 31.824219 22.792969 31.824219 L 14.0625 31.824219 C 8.730469 31.824219 4.367188 27.460938 4.367188 22.128906 L 4.367188 13.398438 C 4.367188 8.066406 8.730469 3.703125 14.0625 3.703125 " fill-opacity="1" fill-rule="evenodd"/><path stroke-linecap="butt" transform="matrix(0.00172534, 0, 0, -0.00172534, 4.366777, 31.825656)" fill="none" stroke-linejoin="miter" d="M 5619.602009 15484.647956 C 2977.459559 15484.647956 815.295001 13322.483398 815.295001 10680.340948 L 815.295001 5620.196667 C 815.295001 2978.054217 2977.459559 815.889659 5619.602009 815.889659 L 10679.74629 815.889659 C 13321.88874 815.889659 15484.053298 2978.054217 15484.053298 5620.196667 L 15484.053298 10680.340948 C 15484.053298 13322.483398 13321.88874 15484.647956 10679.74629 15484.647956 Z M 5619.602009 16299.704753 L 10679.74629 16299.704753 C 13770.169978 16299.704753 16299.110095 13770.764636 16299.110095 10680.340948 L 16299.110095 5620.196667 C 16299.110095 2529.772979 13770.169978 0.832862 10679.74629 0.832862 L 5619.602009 0.832862 C 2529.178321 0.832862 0.238204 2529.772979 0.238204 5620.196667 L 0.238204 10680.340948 C 0.238204 13770.764636 2529.178321 16299.704753 5619.602009 16299.704753 Z M 5619.602009 16299.704753 " stroke="#000000" stroke-width="1.9974" stroke-opacity="1" stroke-miterlimit="2.6131"/></g></svg>