<svg xmlns="http://www.w3.org/2000/svg" xmlns:xlink="http://www.w3.org/1999/xlink" width="50" zoomAndPan="magnify" viewBox="0 0 37.5 37.499999" height="50" preserveAspectRatio="xMidYMid meet" version="1.0"><defs><clipPath id="1845adb97a"><path d="M 2.902344 4.660156 L 33.988281 4.660156 L 33.988281 32.042969 L 2.902344 32.042969 Z M 2.902344 4.660156 " clip-rule="nonzero"/></clipPath></defs><g clip-path="url(#1845adb97a)"><path fill="#000000" d="M 18.519531 4.796875 L 19.304688 6.84375 C 19.328125 6.90625 19.382812 6.945312 19.449219 6.949219 L 21.652344 7.054688 C 21.804688 7.0625 21.867188 7.25 21.75 7.34375 L 20.027344 8.714844 C 19.976562 8.757812 19.953125 8.820312 19.972656 8.882812 L 20.550781 11 C 20.589844 11.140625 20.429688 11.257812 20.304688 11.175781 L 18.457031 9.976562 C 18.402344 9.941406 18.335938 9.941406 18.277344 9.976562 L 16.433594 11.175781 C 16.304688 11.257812 16.144531 11.140625 16.183594 11 L 16.765625 8.882812 C 16.78125 8.820312 16.761719 8.757812 16.707031 8.714844 L 14.988281 7.34375 C 14.871094 7.25 14.933594 7.0625 15.082031 7.054688 L 17.289062 6.949219 C 17.355469 6.945312 17.410156 6.90625 17.433594 6.84375 L 18.214844 4.796875 C 18.269531 4.65625 18.46875 4.65625 18.519531 4.796875 Z M 28.753906 21.648438 C 31.644531 21.648438 33.988281 23.976562 33.988281 26.847656 C 33.988281 29.714844 31.644531 32.042969 28.753906 32.042969 C 25.859375 32.042969 23.515625 29.714844 23.515625 26.847656 C 23.515625 23.976562 25.859375 21.648438 28.753906 21.648438 Z M 28.066406 27.304688 L 26.894531 26.144531 C 26.589844 25.84375 26.101562 25.84375 25.796875 26.144531 C 25.492188 26.445312 25.492188 26.933594 25.796875 27.234375 L 27.515625 28.941406 C 27.820312 29.242188 28.3125 29.242188 28.617188 28.941406 C 29.652344 27.910156 30.679688 26.871094 31.710938 25.835938 C 32.011719 25.535156 32.011719 25.046875 31.707031 24.75 C 31.402344 24.449219 30.910156 24.449219 30.609375 24.753906 Z M 18.367188 13.046875 C 20.515625 13.046875 22.257812 14.773438 22.257812 16.90625 C 22.257812 19.039062 20.515625 20.765625 18.367188 20.765625 C 16.222656 20.765625 14.480469 19.039062 14.480469 16.90625 C 14.480469 14.773438 16.222656 13.046875 18.367188 13.046875 Z M 11.476562 28.21875 L 22.636719 28.21875 C 22.535156 27.777344 22.480469 27.316406 22.480469 26.847656 C 22.480469 25.566406 22.871094 24.378906 23.539062 23.390625 C 22.171875 22.15625 20.359375 21.40625 18.367188 21.40625 C 14.671875 21.40625 11.585938 23.996094 10.847656 27.445312 C 10.761719 27.84375 11.066406 28.21875 11.476562 28.21875 Z M 33.738281 13.6875 L 32.339844 15.386719 C 32.300781 15.4375 32.292969 15.503906 32.320312 15.5625 L 33.332031 17.511719 C 33.398438 17.644531 33.265625 17.789062 33.128906 17.738281 L 31.070312 16.945312 C 31.007812 16.921875 30.941406 16.933594 30.894531 16.980469 L 29.339844 18.535156 C 29.234375 18.640625 29.050781 18.5625 29.058594 18.414062 L 29.183594 16.226562 C 29.1875 16.160156 29.152344 16.101562 29.09375 16.070312 L 27.125 15.085938 C 26.988281 15.015625 27.011719 14.820312 27.15625 14.78125 L 29.289062 14.222656 C 29.355469 14.207031 29.398438 14.15625 29.410156 14.09375 L 29.746094 11.925781 C 29.769531 11.78125 29.964844 11.738281 30.046875 11.863281 L 31.242188 13.707031 C 31.277344 13.761719 31.339844 13.789062 31.40625 13.777344 L 33.582031 13.425781 C 33.730469 13.402344 33.832031 13.574219 33.738281 13.6875 Z M 27.328125 7.21875 C 27.351562 7.074219 27.179688 6.972656 27.066406 7.066406 L 25.355469 8.453125 C 25.304688 8.496094 25.234375 8.5 25.175781 8.472656 L 23.214844 7.46875 C 23.078125 7.402344 22.933594 7.535156 22.988281 7.671875 L 23.785156 9.714844 C 23.808594 9.777344 23.796875 9.84375 23.746094 9.886719 L 22.179688 11.433594 C 22.074219 11.535156 22.15625 11.71875 22.304688 11.707031 L 24.507812 11.585938 C 24.574219 11.582031 24.632812 11.617188 24.664062 11.675781 L 25.660156 13.628906 C 25.726562 13.761719 25.925781 13.742188 25.960938 13.597656 L 26.527344 11.480469 C 26.542969 11.417969 26.59375 11.371094 26.660156 11.363281 L 28.839844 11.027344 C 28.988281 11.003906 29.03125 10.8125 28.90625 10.730469 L 27.046875 9.542969 C 26.992188 9.507812 26.964844 9.449219 26.976562 9.382812 Z M 3.152344 13.425781 L 5.332031 13.777344 C 5.398438 13.789062 5.460938 13.761719 5.496094 13.707031 L 6.691406 11.863281 C 6.773438 11.738281 6.964844 11.78125 6.988281 11.925781 L 7.328125 14.09375 C 7.335938 14.15625 7.382812 14.207031 7.445312 14.222656 L 9.582031 14.78125 C 9.726562 14.820312 9.746094 15.015625 9.613281 15.085938 L 7.640625 16.070312 C 7.582031 16.101562 7.546875 16.160156 7.550781 16.226562 L 7.675781 18.414062 C 7.683594 18.5625 7.503906 18.640625 7.398438 18.535156 L 5.84375 16.980469 C 5.796875 16.933594 5.730469 16.921875 5.667969 16.945312 L 3.609375 17.738281 C 3.46875 17.789062 3.335938 17.644531 3.40625 17.511719 L 4.414062 15.5625 C 4.445312 15.503906 4.4375 15.4375 4.394531 15.386719 L 3 13.6875 C 2.90625 13.574219 3.003906 13.402344 3.152344 13.425781 Z M 9.671875 7.066406 C 9.554688 6.972656 9.382812 7.074219 9.40625 7.21875 L 9.761719 9.382812 C 9.769531 9.445312 9.742188 9.507812 9.6875 9.542969 L 7.832031 10.730469 C 7.707031 10.8125 7.746094 11.003906 7.894531 11.027344 L 10.078125 11.363281 C 10.144531 11.371094 10.191406 11.417969 10.210938 11.480469 L 10.773438 13.597656 C 10.8125 13.742188 11.007812 13.761719 11.078125 13.628906 L 12.070312 11.675781 C 12.101562 11.617188 12.160156 11.582031 12.226562 11.585938 L 14.429688 11.707031 C 14.582031 11.71875 14.660156 11.535156 14.554688 11.433594 L 12.988281 9.886719 C 12.941406 9.84375 12.925781 9.777344 12.953125 9.714844 L 13.75 7.671875 C 13.804688 7.535156 13.65625 7.402344 13.523438 7.46875 L 11.558594 8.472656 C 11.5 8.5 11.433594 8.496094 11.382812 8.453125 Z M 9.671875 7.066406 " fill-opacity="1" fill-rule="evenodd"/></g></svg>