<svg xmlns="http://www.w3.org/2000/svg" xmlns:xlink="http://www.w3.org/1999/xlink" width="50" zoomAndPan="magnify" viewBox="0 0 37.5 37.499999" height="50" preserveAspectRatio="xMidYMid meet" version="1.0"><defs><clipPath id="4409f4d40e"><path d="M 9 3.699219 L 32.972656 3.699219 L 32.972656 27 L 9 27 Z M 9 3.699219 " clip-rule="nonzero"/></clipPath><clipPath id="2594b2c0d4"><path d="M 4.847656 8 L 30 8 L 30 31.824219 L 4.847656 31.824219 Z M 4.847656 8 " clip-rule="nonzero"/></clipPath></defs><path fill="#000000" d="M 15.445312 17.21875 L 14.414062 16.558594 C 14.277344 16.472656 14.105469 16.480469 13.976562 16.578125 L 13.367188 17.050781 L 12.746094 16.941406 L 12.335938 16.285156 C 12.253906 16.148438 12.089844 16.082031 11.933594 16.117188 L 10.738281 16.378906 C 10.582031 16.414062 10.464844 16.542969 10.445312 16.699219 L 10.347656 17.46875 L 9.832031 17.828125 L 9.078125 17.652344 C 8.921875 17.617188 8.757812 17.683594 8.671875 17.816406 L 8.011719 18.851562 C 7.925781 18.984375 7.933594 19.160156 8.03125 19.285156 L 8.507812 19.898438 L 8.394531 20.515625 L 7.738281 20.925781 C 7.601562 21.011719 7.535156 21.171875 7.570312 21.328125 L 7.832031 22.523438 C 7.867188 22.683594 7.996094 22.800781 8.152344 22.820312 L 8.921875 22.917969 L 9.28125 23.433594 L 9.109375 24.1875 C 9.070312 24.34375 9.136719 24.503906 9.273438 24.589844 L 10.304688 25.25 C 10.4375 25.335938 10.613281 25.328125 10.738281 25.230469 L 11.351562 24.757812 L 11.972656 24.867188 L 12.378906 25.523438 C 12.449219 25.636719 12.574219 25.703125 12.703125 25.703125 C 12.726562 25.703125 12.753906 25.699219 12.78125 25.695312 L 13.980469 25.429688 C 14.136719 25.398438 14.253906 25.269531 14.273438 25.109375 L 14.371094 24.339844 L 14.886719 23.980469 L 15.640625 24.15625 C 15.796875 24.191406 15.957031 24.125 16.042969 23.992188 L 16.707031 22.960938 C 16.792969 22.824219 16.785156 22.652344 16.6875 22.523438 L 16.210938 21.914062 L 16.320312 21.292969 L 16.980469 20.882812 C 17.113281 20.796875 17.183594 20.636719 17.148438 20.480469 L 16.886719 19.285156 C 16.851562 19.128906 16.722656 19.011719 16.5625 18.988281 L 15.796875 18.894531 L 15.4375 18.378906 L 15.609375 17.621094 C 15.648438 17.46875 15.582031 17.304688 15.445312 17.21875 Z M 15.535156 19.621094 L 16.203125 19.707031 L 16.351562 20.382812 L 15.777344 20.738281 C 15.6875 20.796875 15.625 20.890625 15.605469 20.996094 L 15.4375 21.945312 C 15.417969 22.050781 15.445312 22.160156 15.511719 22.242188 L 15.925781 22.777344 L 15.550781 23.359375 L 14.894531 23.207031 C 14.789062 23.183594 14.679688 23.203125 14.59375 23.265625 L 13.800781 23.816406 C 13.710938 23.878906 13.65625 23.972656 13.640625 24.078125 L 13.558594 24.75 L 12.882812 24.898438 L 12.523438 24.324219 C 12.46875 24.234375 12.375 24.171875 12.269531 24.152344 L 11.320312 23.984375 C 11.296875 23.980469 11.273438 23.976562 11.253906 23.976562 C 11.167969 23.976562 11.085938 24.003906 11.019531 24.058594 L 10.488281 24.46875 L 9.90625 24.097656 L 10.058594 23.441406 C 10.082031 23.335938 10.058594 23.226562 10 23.136719 L 9.445312 22.347656 C 9.386719 22.257812 9.289062 22.199219 9.183594 22.1875 L 8.515625 22.101562 L 8.367188 21.425781 L 8.9375 21.070312 C 9.03125 21.011719 9.09375 20.921875 9.109375 20.816406 L 9.28125 19.863281 C 9.300781 19.757812 9.273438 19.652344 9.207031 19.566406 L 8.792969 19.03125 L 9.167969 18.449219 L 9.824219 18.601562 C 9.929688 18.628906 10.039062 18.605469 10.125 18.542969 L 10.917969 17.992188 C 11.003906 17.933594 11.0625 17.835938 11.078125 17.730469 L 11.160156 17.058594 L 11.835938 16.910156 L 12.195312 17.484375 C 12.25 17.574219 12.34375 17.636719 12.449219 17.65625 L 13.398438 17.828125 C 13.503906 17.84375 13.613281 17.820312 13.699219 17.753906 L 14.230469 17.339844 L 14.8125 17.710938 L 14.660156 18.371094 C 14.636719 18.472656 14.65625 18.582031 14.71875 18.671875 L 15.269531 19.464844 C 15.332031 19.550781 15.429688 19.609375 15.535156 19.621094 Z M 15.535156 19.621094 " fill-opacity="1" fill-rule="nonzero"/><path fill="#000000" d="M 12.773438 18.585938 C 12.152344 18.476562 11.527344 18.613281 11.011719 18.972656 C 10.496094 19.332031 10.152344 19.871094 10.039062 20.492188 C 9.929688 21.109375 10.066406 21.734375 10.425781 22.25 C 10.785156 22.765625 11.324219 23.113281 11.945312 23.222656 C 12.085938 23.246094 12.226562 23.261719 12.363281 23.261719 C 12.839844 23.261719 13.304688 23.113281 13.707031 22.835938 C 14.222656 22.476562 14.566406 21.9375 14.675781 21.320312 C 14.789062 20.699219 14.652344 20.074219 14.289062 19.558594 C 13.929688 19.042969 13.390625 18.695312 12.773438 18.585938 Z M 13.933594 21.1875 C 13.859375 21.605469 13.625 21.972656 13.273438 22.214844 C 12.921875 22.460938 12.5 22.554688 12.078125 22.480469 C 11.65625 22.402344 11.292969 22.167969 11.046875 21.820312 C 10.804688 21.46875 10.710938 21.042969 10.785156 20.625 C 10.921875 19.851562 11.597656 19.304688 12.359375 19.304688 C 12.449219 19.304688 12.546875 19.3125 12.640625 19.332031 C 13.058594 19.40625 13.425781 19.640625 13.671875 19.992188 C 13.914062 20.339844 14.007812 20.765625 13.933594 21.1875 Z M 13.933594 21.1875 " fill-opacity="1" fill-rule="nonzero"/><path fill="#000000" d="M 22.273438 25.289062 C 22.410156 25.203125 22.476562 25.042969 22.441406 24.886719 L 22.277344 24.132812 C 22.242188 23.976562 22.113281 23.859375 21.957031 23.839844 L 21.535156 23.785156 L 21.378906 23.5625 L 21.472656 23.148438 C 21.511719 22.992188 21.445312 22.828125 21.308594 22.742188 L 20.660156 22.328125 C 20.523438 22.242188 20.351562 22.25 20.222656 22.347656 L 19.886719 22.609375 L 19.621094 22.558594 L 19.394531 22.199219 C 19.308594 22.0625 19.148438 21.996094 18.992188 22.03125 L 18.238281 22.195312 C 18.082031 22.230469 17.964844 22.359375 17.945312 22.515625 L 17.890625 22.9375 L 17.667969 23.09375 L 17.253906 23 C 17.097656 22.960938 16.9375 23.027344 16.851562 23.164062 L 16.433594 23.8125 C 16.347656 23.949219 16.355469 24.121094 16.453125 24.25 L 16.714844 24.585938 L 16.667969 24.851562 L 16.304688 25.078125 C 16.167969 25.164062 16.101562 25.324219 16.136719 25.480469 L 16.300781 26.234375 C 16.335938 26.390625 16.464844 26.507812 16.625 26.527344 L 17.046875 26.582031 L 17.199219 26.804688 L 17.105469 27.21875 C 17.070312 27.375 17.132812 27.535156 17.269531 27.621094 L 17.917969 28.039062 C 18.054688 28.125 18.230469 28.117188 18.355469 28.019531 L 18.691406 27.757812 L 18.960938 27.804688 L 19.183594 28.167969 C 19.253906 28.28125 19.375 28.34375 19.503906 28.34375 C 19.53125 28.34375 19.558594 28.34375 19.585938 28.335938 L 20.339844 28.171875 C 20.496094 28.136719 20.613281 28.007812 20.632812 27.847656 L 20.6875 27.425781 L 20.910156 27.273438 L 21.324219 27.367188 C 21.480469 27.402344 21.644531 27.335938 21.730469 27.203125 L 22.144531 26.554688 C 22.230469 26.417969 22.222656 26.242188 22.125 26.117188 L 21.863281 25.78125 L 21.914062 25.511719 Z M 21.371094 24.960938 C 21.28125 25.015625 21.21875 25.109375 21.199219 25.214844 L 21.089844 25.8125 C 21.074219 25.917969 21.097656 26.027344 21.164062 26.113281 L 21.363281 26.371094 L 21.238281 26.570312 L 20.917969 26.496094 C 20.8125 26.472656 20.703125 26.492188 20.617188 26.554688 L 20.117188 26.902344 C 20.03125 26.964844 19.972656 27.058594 19.957031 27.164062 L 19.917969 27.488281 L 19.683594 27.539062 L 19.511719 27.261719 C 19.457031 27.171875 19.363281 27.109375 19.257812 27.089844 L 18.660156 26.984375 C 18.636719 26.980469 18.613281 26.980469 18.59375 26.980469 C 18.507812 26.980469 18.429688 27.007812 18.359375 27.058594 L 18.101562 27.257812 L 17.902344 27.128906 L 17.976562 26.8125 C 18 26.707031 17.980469 26.597656 17.917969 26.511719 L 17.570312 26.011719 C 17.507812 25.921875 17.414062 25.867188 17.308594 25.851562 L 16.984375 25.8125 L 16.933594 25.578125 L 17.210938 25.40625 C 17.300781 25.347656 17.363281 25.257812 17.382812 25.152344 L 17.488281 24.554688 C 17.507812 24.449219 17.480469 24.339844 17.414062 24.253906 L 17.214844 23.996094 L 17.34375 23.796875 L 17.660156 23.871094 C 17.765625 23.894531 17.875 23.871094 17.960938 23.8125 L 18.460938 23.464844 C 18.550781 23.402344 18.605469 23.308594 18.621094 23.199219 L 18.660156 22.875 L 18.894531 22.824219 L 19.066406 23.101562 C 19.125 23.195312 19.214844 23.257812 19.320312 23.273438 L 19.921875 23.382812 C 20.027344 23.402344 20.132812 23.375 20.21875 23.308594 L 20.476562 23.109375 L 20.675781 23.238281 L 20.601562 23.554688 C 20.578125 23.660156 20.601562 23.769531 20.660156 23.855469 L 21.007812 24.355469 C 21.070312 24.441406 21.167969 24.5 21.273438 24.515625 L 21.597656 24.554688 L 21.648438 24.789062 Z M 21.371094 24.960938 " fill-opacity="1" fill-rule="nonzero"/><path fill="#000000" d="M 19.550781 23.730469 C 19.160156 23.660156 18.769531 23.746094 18.445312 23.972656 C 18.121094 24.195312 17.90625 24.535156 17.835938 24.921875 C 17.691406 25.726562 18.226562 26.496094 19.03125 26.636719 C 19.117188 26.652344 19.203125 26.660156 19.289062 26.660156 C 19.992188 26.660156 20.617188 26.15625 20.742188 25.441406 C 20.8125 25.054688 20.726562 24.664062 20.5 24.339844 C 20.277344 24.015625 19.9375 23.796875 19.550781 23.730469 Z M 20 25.308594 C 19.929688 25.703125 19.554688 25.960938 19.164062 25.894531 C 18.773438 25.824219 18.511719 25.449219 18.578125 25.054688 C 18.613281 24.867188 18.71875 24.703125 18.878906 24.589844 C 19 24.507812 19.140625 24.460938 19.289062 24.460938 C 19.332031 24.460938 19.375 24.464844 19.417969 24.472656 C 19.605469 24.507812 19.769531 24.613281 19.882812 24.769531 C 19.992188 24.929688 20.035156 25.121094 20 25.308594 Z M 20 25.308594 " fill-opacity="1" fill-rule="nonzero"/><path fill="#000000" d="M 19.851562 17.601562 C 20.125 17.992188 20.464844 18.320312 20.863281 18.582031 C 21.277344 18.851562 21.734375 19.03125 22.222656 19.117188 C 22.4375 19.15625 22.65625 19.175781 22.875 19.175781 C 23.144531 19.175781 23.414062 19.144531 23.683594 19.085938 C 24.144531 18.980469 24.582031 18.789062 24.972656 18.515625 C 25.363281 18.242188 25.695312 17.902344 25.953125 17.5 C 26.222656 17.089844 26.402344 16.632812 26.488281 16.144531 C 26.578125 15.65625 26.566406 15.164062 26.457031 14.683594 C 26.351562 14.21875 26.160156 13.785156 25.886719 13.394531 C 25.613281 13 25.273438 12.671875 24.875 12.410156 C 24.460938 12.144531 24.003906 11.960938 23.515625 11.875 C 23.027344 11.789062 22.535156 11.800781 22.054688 11.910156 C 21.589844 12.015625 21.15625 12.207031 20.765625 12.480469 C 20.375 12.75 20.042969 13.09375 19.785156 13.492188 C 19.515625 13.902344 19.335938 14.359375 19.246094 14.851562 C 19.160156 15.339844 19.171875 15.828125 19.28125 16.308594 C 19.386719 16.773438 19.578125 17.207031 19.851562 17.601562 Z M 19.992188 14.984375 C 20.128906 14.214844 20.558594 13.546875 21.199219 13.097656 C 21.695312 12.753906 22.269531 12.574219 22.863281 12.574219 C 23.035156 12.574219 23.207031 12.589844 23.382812 12.621094 C 24.152344 12.757812 24.820312 13.183594 25.265625 13.824219 C 25.710938 14.464844 25.882812 15.242188 25.746094 16.011719 C 25.609375 16.777344 25.179688 17.449219 24.539062 17.894531 C 23.898438 18.339844 23.125 18.511719 22.355469 18.375 C 21.585938 18.234375 20.917969 17.808594 20.472656 17.167969 C 20.023438 16.527344 19.855469 15.75 19.992188 14.984375 Z M 19.992188 14.984375 " fill-opacity="1" fill-rule="nonzero"/><path fill="#000000" d="M 16.085938 16.140625 C 15.9375 16.226562 15.863281 16.398438 15.90625 16.5625 L 16.234375 17.847656 C 16.277344 18.011719 16.425781 18.128906 16.597656 18.132812 L 17.632812 18.144531 L 18.015625 18.789062 L 17.53125 19.703125 C 17.453125 19.855469 17.484375 20.042969 17.609375 20.15625 L 18.582031 21.058594 C 18.707031 21.175781 18.894531 21.191406 19.039062 21.101562 L 19.917969 20.554688 L 20.585938 20.886719 L 20.679688 21.917969 C 20.691406 22.089844 20.820312 22.226562 20.988281 22.257812 L 22.292969 22.492188 C 22.316406 22.496094 22.335938 22.496094 22.359375 22.496094 C 22.503906 22.496094 22.636719 22.414062 22.703125 22.28125 L 23.144531 21.34375 L 23.886719 21.261719 L 24.519531 22.082031 C 24.625 22.214844 24.808594 22.265625 24.964844 22.199219 L 26.183594 21.691406 L 26.1875 21.6875 C 26.347656 21.625 26.441406 21.460938 26.417969 21.289062 L 26.285156 20.261719 L 26.863281 19.792969 L 27.839844 20.140625 C 28.003906 20.195312 28.183594 20.140625 28.277344 20 L 29.03125 18.910156 C 29.128906 18.769531 29.121094 18.578125 29.011719 18.449219 L 28.34375 17.65625 L 28.578125 16.949219 L 29.585938 16.710938 C 29.753906 16.671875 29.871094 16.527344 29.878906 16.355469 L 29.921875 15.03125 C 29.929688 14.859375 29.820312 14.707031 29.65625 14.65625 L 28.664062 14.351562 L 28.480469 13.628906 L 29.199219 12.882812 C 29.316406 12.761719 29.339844 12.574219 29.253906 12.429688 L 28.574219 11.289062 C 28.488281 11.144531 28.3125 11.074219 28.148438 11.117188 L 27.148438 11.398438 L 26.601562 10.890625 L 26.804688 9.875 C 26.839844 9.707031 26.757812 9.539062 26.605469 9.460938 L 25.417969 8.871094 C 25.265625 8.792969 25.078125 8.828125 24.964844 8.957031 L 24.277344 9.730469 L 23.542969 9.601562 L 23.164062 8.636719 C 23.101562 8.476562 22.941406 8.378906 22.769531 8.398438 L 21.453125 8.542969 C 21.285156 8.558594 21.148438 8.691406 21.121094 8.859375 L 20.960938 9.882812 L 20.269531 10.171875 L 19.429688 9.5625 C 19.292969 9.460938 19.105469 9.46875 18.972656 9.574219 L 17.941406 10.410156 C 17.808594 10.515625 17.765625 10.699219 17.832031 10.855469 L 18.25 11.804688 L 17.828125 12.417969 L 16.792969 12.359375 C 16.621094 12.351562 16.464844 12.457031 16.414062 12.621094 L 15.996094 13.878906 C 15.941406 14.039062 16.003906 14.21875 16.148438 14.3125 L 17.011719 14.882812 L 16.984375 15.628906 Z M 17.605469 14.367188 L 16.804688 13.839844 L 17.039062 13.132812 L 17.996094 13.183594 C 18.128906 13.191406 18.253906 13.128906 18.328125 13.023438 L 18.992188 12.058594 C 19.070312 11.953125 19.082031 11.8125 19.027344 11.691406 L 18.640625 10.816406 L 19.222656 10.34375 L 20 10.90625 C 20.105469 10.984375 20.246094 11 20.367188 10.949219 L 21.445312 10.5 C 21.566406 10.449219 21.65625 10.339844 21.675781 10.210938 L 21.824219 9.261719 L 22.566406 9.179688 L 22.914062 10.074219 C 22.964844 10.195312 23.070312 10.285156 23.199219 10.308594 L 24.351562 10.515625 C 24.484375 10.535156 24.613281 10.492188 24.703125 10.394531 L 25.339844 9.675781 L 26.007812 10.007812 L 25.820312 10.949219 C 25.792969 11.078125 25.835938 11.210938 25.933594 11.300781 L 26.789062 12.097656 C 26.886719 12.1875 27.023438 12.21875 27.148438 12.183594 L 28.074219 11.925781 L 28.453125 12.566406 L 27.789062 13.253906 C 27.695312 13.351562 27.660156 13.484375 27.695312 13.613281 L 27.984375 14.746094 C 28.019531 14.875 28.113281 14.976562 28.242188 15.015625 L 29.15625 15.296875 L 29.132812 16.042969 L 28.199219 16.261719 C 28.070312 16.289062 27.964844 16.386719 27.925781 16.511719 L 27.558594 17.621094 C 27.515625 17.746094 27.542969 17.882812 27.628906 17.984375 L 28.246094 18.714844 L 27.820312 19.332031 L 26.917969 19.011719 C 26.792969 18.964844 26.65625 18.988281 26.554688 19.074219 L 25.644531 19.808594 C 25.542969 19.890625 25.488281 20.023438 25.507812 20.152344 L 25.632812 21.101562 L 24.941406 21.390625 L 24.355469 20.632812 C 24.273438 20.527344 24.144531 20.472656 24.015625 20.488281 L 22.851562 20.613281 C 22.71875 20.628906 22.605469 20.710938 22.550781 20.828125 L 22.140625 21.695312 L 21.40625 21.5625 L 21.320312 20.609375 C 21.3125 20.480469 21.230469 20.363281 21.113281 20.304688 L 20.066406 19.78125 C 19.949219 19.722656 19.808594 19.730469 19.699219 19.800781 L 18.882812 20.308594 L 18.335938 19.800781 L 18.78125 18.953125 C 18.84375 18.835938 18.839844 18.695312 18.773438 18.582031 L 18.171875 17.578125 C 18.105469 17.464844 17.984375 17.394531 17.855469 17.390625 L 16.894531 17.378906 L 16.710938 16.65625 L 17.542969 16.183594 C 17.65625 16.117188 17.730469 16 17.734375 15.867188 L 17.773438 14.699219 C 17.777344 14.566406 17.714844 14.441406 17.605469 14.367188 Z M 17.605469 14.367188 " fill-opacity="1" fill-rule="nonzero"/><g clip-path="url(#4409f4d40e)"><path fill="#000000" d="M 32.972656 17.761719 C 32.972656 15.863281 32.601562 14.023438 31.867188 12.289062 C 31.515625 11.457031 31.078125 10.652344 30.570312 9.898438 C 30.066406 9.15625 29.492188 8.457031 28.855469 7.820312 C 28.21875 7.183594 27.519531 6.605469 26.773438 6.101562 C 26.019531 5.59375 25.21875 5.160156 24.382812 4.804688 C 22.648438 4.074219 20.808594 3.699219 18.910156 3.699219 C 17.164062 3.699219 15.460938 4.015625 13.847656 4.640625 C 12.289062 5.242188 10.863281 6.109375 9.605469 7.21875 C 9.445312 7.359375 9.433594 7.597656 9.570312 7.753906 C 9.707031 7.910156 9.949219 7.925781 10.105469 7.789062 C 11.292969 6.734375 12.644531 5.914062 14.121094 5.34375 C 15.648438 4.753906 17.257812 4.457031 18.910156 4.457031 C 20.707031 4.457031 22.449219 4.808594 24.089844 5.503906 C 24.878906 5.835938 25.636719 6.25 26.351562 6.730469 C 27.054688 7.203125 27.71875 7.75 28.320312 8.355469 C 28.921875 8.957031 29.46875 9.617188 29.945312 10.324219 C 30.425781 11.035156 30.835938 11.796875 31.171875 12.582031 C 31.863281 14.222656 32.214844 15.964844 32.214844 17.761719 C 32.214844 19.261719 31.96875 20.730469 31.484375 22.128906 C 31.09375 23.253906 30.554688 24.316406 29.882812 25.292969 L 29.757812 24.535156 C 29.722656 24.328125 29.527344 24.1875 29.324219 24.222656 C 29.117188 24.257812 28.976562 24.449219 29.011719 24.65625 L 29.269531 26.246094 C 29.300781 26.429688 29.460938 26.5625 29.644531 26.5625 C 29.664062 26.5625 29.683594 26.5625 29.703125 26.558594 L 31.292969 26.296875 C 31.5 26.265625 31.640625 26.070312 31.605469 25.863281 C 31.574219 25.65625 31.378906 25.519531 31.171875 25.550781 L 30.550781 25.652344 C 31.242188 24.636719 31.792969 23.539062 32.199219 22.378906 C 32.710938 20.898438 32.972656 19.34375 32.972656 17.761719 Z M 32.972656 17.761719 " fill-opacity="1" fill-rule="nonzero"/></g><g clip-path="url(#2594b2c0d4)"><path fill="#000000" d="M 28.472656 27.015625 C 27.867188 27.640625 27.199219 28.207031 26.484375 28.703125 C 25.765625 29.203125 24.996094 29.632812 24.191406 29.980469 C 23.375 30.332031 22.519531 30.605469 21.648438 30.789062 C 20.753906 30.976562 19.832031 31.070312 18.910156 31.070312 C 17.113281 31.070312 15.371094 30.71875 13.730469 30.023438 C 12.941406 29.691406 12.183594 29.277344 11.472656 28.796875 C 10.765625 28.320312 10.105469 27.773438 9.5 27.171875 C 8.898438 26.570312 8.351562 25.90625 7.875 25.203125 C 7.394531 24.492188 6.984375 23.730469 6.648438 22.941406 C 5.957031 21.300781 5.605469 19.558594 5.605469 17.761719 C 5.605469 16.117188 5.902344 14.507812 6.488281 12.984375 C 6.949219 11.78125 7.582031 10.664062 8.367188 9.644531 L 8.367188 10.234375 C 8.367188 10.445312 8.535156 10.613281 8.746094 10.613281 C 8.953125 10.613281 9.121094 10.445312 9.121094 10.234375 L 9.121094 8.625 C 9.121094 8.414062 8.953125 8.246094 8.746094 8.246094 L 7.132812 8.246094 C 6.925781 8.246094 6.753906 8.414062 6.753906 8.625 C 6.753906 8.832031 6.925781 9.003906 7.132812 9.003906 L 7.910156 9.003906 C 7.011719 10.125 6.296875 11.371094 5.78125 12.710938 C 5.160156 14.324219 4.847656 16.023438 4.847656 17.761719 C 4.847656 19.660156 5.21875 21.503906 5.953125 23.238281 C 6.304688 24.070312 6.742188 24.875 7.25 25.625 C 7.753906 26.371094 8.332031 27.070312 8.964844 27.707031 C 9.601562 28.34375 10.304688 28.921875 11.046875 29.425781 C 11.800781 29.933594 12.601562 30.367188 13.4375 30.71875 C 15.171875 31.453125 17.011719 31.824219 18.910156 31.824219 C 19.882812 31.824219 20.859375 31.726562 21.804688 31.527344 C 22.722656 31.335938 23.628906 31.046875 24.492188 30.675781 C 25.339844 30.308594 26.15625 29.851562 26.917969 29.324219 C 27.671875 28.800781 28.378906 28.203125 29.015625 27.542969 C 29.164062 27.390625 29.160156 27.152344 29.007812 27.007812 C 28.859375 26.863281 28.617188 26.867188 28.472656 27.015625 Z M 28.472656 27.015625 " fill-opacity="1" fill-rule="nonzero"/></g><path fill="#000000" d="M 21.921875 17.160156 C 21.996094 17.234375 22.09375 17.273438 22.191406 17.273438 C 22.289062 17.273438 22.382812 17.234375 22.457031 17.160156 L 24.679688 14.9375 C 24.828125 14.789062 24.828125 14.550781 24.679688 14.402344 C 24.535156 14.253906 24.292969 14.253906 24.144531 14.402344 L 22.191406 16.359375 L 21.335938 15.503906 C 21.1875 15.355469 20.949219 15.355469 20.800781 15.503906 C 20.652344 15.652344 20.652344 15.890625 20.800781 16.039062 Z M 21.921875 17.160156 " fill-opacity="1" fill-rule="nonzero"/></svg>