<svg xmlns="http://www.w3.org/2000/svg" xmlns:xlink="http://www.w3.org/1999/xlink" width="100" zoomAndPan="magnify" viewBox="0 0 75 74.999997" height="100" preserveAspectRatio="xMidYMid meet" version="1.0"><defs><clipPath id="e4ea8d635a"><path d="M 12.792969 23 L 16 23 L 16 26 L 12.792969 26 Z M 12.792969 23 " clip-rule="nonzero"/></clipPath><clipPath id="9c1b4a9ebf"><path d="M 55 12.792969 L 61 12.792969 L 61 18 L 55 18 Z M 55 12.792969 " clip-rule="nonzero"/></clipPath><clipPath id="76b1e39ee8"><path d="M 59 19 L 62.292969 19 L 62.292969 23 L 59 23 Z M 59 19 " clip-rule="nonzero"/></clipPath><clipPath id="139996645d"><path d="M 12.792969 43 L 59 43 L 59 56 L 12.792969 56 Z M 12.792969 43 " clip-rule="nonzero"/></clipPath><clipPath id="2494297406"><path d="M 20 59 L 24 59 L 24 62.292969 L 20 62.292969 Z M 20 59 " clip-rule="nonzero"/></clipPath></defs><g clip-path="url(#e4ea8d635a)"><path fill="#00a5a5" d="M 14.183594 23 C 14.015625 23 13.851562 23.035156 13.699219 23.097656 C 13.542969 23.160156 13.40625 23.253906 13.289062 23.371094 C 13.167969 23.488281 13.078125 23.625 13.015625 23.78125 C 12.949219 23.9375 12.917969 24.097656 12.917969 24.265625 C 12.917969 24.433594 12.949219 24.59375 13.015625 24.75 C 13.078125 24.90625 13.167969 25.042969 13.289062 25.160156 C 13.40625 25.277344 13.542969 25.371094 13.699219 25.433594 C 13.851562 25.496094 14.015625 25.53125 14.183594 25.53125 C 14.351562 25.53125 14.511719 25.496094 14.667969 25.433594 C 14.820312 25.371094 14.957031 25.277344 15.078125 25.160156 C 15.195312 25.042969 15.285156 24.90625 15.351562 24.75 C 15.414062 24.59375 15.445312 24.433594 15.445312 24.265625 C 15.445312 24.097656 15.414062 23.9375 15.351562 23.78125 C 15.285156 23.625 15.195312 23.488281 15.078125 23.371094 C 14.957031 23.253906 14.820312 23.160156 14.667969 23.097656 C 14.511719 23.035156 14.351562 23 14.183594 23 Z M 14.183594 23 " fill-opacity="1" fill-rule="nonzero"/></g><path fill="#f1bc19" d="M 54.640625 13.519531 C 54.46875 13.519531 54.320312 13.582031 54.195312 13.703125 C 54.070312 13.828125 54.011719 13.976562 54.011719 14.152344 C 54.011719 14.324219 54.070312 14.472656 54.195312 14.597656 C 54.320312 14.722656 54.46875 14.78125 54.640625 14.78125 C 54.816406 14.78125 54.964844 14.722656 55.089844 14.597656 C 55.210938 14.472656 55.273438 14.324219 55.273438 14.152344 C 55.273438 13.976562 55.210938 13.828125 55.089844 13.703125 C 54.964844 13.582031 54.816406 13.519531 54.640625 13.519531 Z M 54.640625 13.519531 " fill-opacity="1" fill-rule="nonzero"/><path fill="#c0e5e4" d="M 37.574219 14.152344 C 36.808594 14.152344 36.042969 14.1875 35.28125 14.261719 C 34.519531 14.339844 33.761719 14.449219 33.007812 14.601562 C 32.257812 14.75 31.515625 14.933594 30.78125 15.15625 C 30.050781 15.378906 29.328125 15.636719 28.621094 15.929688 C 27.914062 16.222656 27.222656 16.550781 26.546875 16.914062 C 25.871094 17.273438 25.214844 17.667969 24.578125 18.09375 C 23.941406 18.519531 23.328125 18.972656 22.734375 19.460938 C 22.140625 19.945312 21.574219 20.460938 21.035156 21 C 20.492188 21.542969 19.976562 22.109375 19.492188 22.703125 C 19.003906 23.292969 18.550781 23.910156 18.125 24.546875 C 17.699219 25.183594 17.304688 25.839844 16.945312 26.515625 C 16.582031 27.191406 16.257812 27.882812 15.960938 28.589844 C 15.667969 29.296875 15.410156 30.019531 15.1875 30.75 C 14.96875 31.484375 14.78125 32.226562 14.632812 32.976562 C 14.480469 33.730469 14.371094 34.484375 14.292969 35.25 C 14.21875 36.011719 14.183594 36.773438 14.183594 37.542969 C 14.183594 38.308594 14.21875 39.070312 14.292969 39.835938 C 14.371094 40.597656 14.480469 41.351562 14.632812 42.105469 C 14.78125 42.855469 14.96875 43.597656 15.1875 44.332031 C 15.410156 45.066406 15.667969 45.785156 15.960938 46.492188 C 16.257812 47.199219 16.582031 47.890625 16.945312 48.566406 C 17.304688 49.242188 17.699219 49.898438 18.125 50.535156 C 18.550781 51.171875 19.003906 51.789062 19.492188 52.378906 C 19.976562 52.972656 20.492188 53.539062 21.035156 54.082031 C 21.574219 54.621094 22.140625 55.136719 22.734375 55.621094 C 23.328125 56.109375 23.941406 56.566406 24.578125 56.988281 C 25.214844 57.414062 25.871094 57.808594 26.546875 58.171875 C 27.222656 58.53125 27.914062 58.859375 28.621094 59.152344 C 29.328125 59.445312 30.050781 59.703125 30.78125 59.925781 C 31.515625 60.148438 32.257812 60.332031 33.007812 60.484375 C 33.761719 60.632812 34.519531 60.746094 35.28125 60.820312 C 36.042969 60.894531 36.808594 60.933594 37.574219 60.933594 C 38.339844 60.933594 39.101562 60.894531 39.867188 60.820312 C 40.628906 60.746094 41.386719 60.632812 42.136719 60.484375 C 42.886719 60.332031 43.628906 60.148438 44.363281 59.925781 C 45.097656 59.703125 45.816406 59.445312 46.523438 59.152344 C 47.230469 58.859375 47.921875 58.53125 48.597656 58.171875 C 49.273438 57.808594 49.929688 57.414062 50.566406 56.988281 C 51.207031 56.566406 51.820312 56.109375 52.410156 55.621094 C 53.003906 55.136719 53.570312 54.621094 54.113281 54.082031 C 54.65625 53.539062 55.167969 52.972656 55.65625 52.378906 C 56.140625 51.789062 56.597656 51.171875 57.023438 50.535156 C 57.449219 49.898438 57.839844 49.242188 58.203125 48.566406 C 58.5625 47.890625 58.890625 47.199219 59.183594 46.492188 C 59.476562 45.785156 59.734375 45.066406 59.957031 44.332031 C 60.179688 43.597656 60.363281 42.855469 60.515625 42.105469 C 60.664062 41.351562 60.777344 40.597656 60.851562 39.835938 C 60.925781 39.070312 60.964844 38.308594 60.964844 37.542969 C 60.964844 36.773438 60.925781 36.011719 60.851562 35.25 C 60.777344 34.484375 60.664062 33.730469 60.515625 32.976562 C 60.363281 32.226562 60.179688 31.484375 59.957031 30.75 C 59.734375 30.019531 59.476562 29.296875 59.183594 28.589844 C 58.890625 27.882812 58.5625 27.191406 58.203125 26.515625 C 57.839844 25.839844 57.449219 25.183594 57.023438 24.546875 C 56.597656 23.910156 56.140625 23.292969 55.65625 22.703125 C 55.167969 22.109375 54.65625 21.542969 54.113281 21 C 53.570312 20.460938 53.003906 19.945312 52.410156 19.460938 C 51.820312 18.972656 51.207031 18.519531 50.566406 18.09375 C 49.929688 17.667969 49.273438 17.273438 48.597656 16.914062 C 47.921875 16.550781 47.230469 16.222656 46.523438 15.929688 C 45.816406 15.636719 45.097656 15.378906 44.363281 15.15625 C 43.628906 14.933594 42.886719 14.75 42.136719 14.601562 C 41.386719 14.449219 40.628906 14.339844 39.867188 14.261719 C 39.101562 14.1875 38.339844 14.152344 37.574219 14.152344 Z M 37.574219 14.152344 " fill-opacity="1" fill-rule="nonzero"/><g clip-path="url(#9c1b4a9ebf)"><path fill="#f1bc19" d="M 58.433594 12.886719 C 58.101562 12.886719 57.777344 12.949219 57.46875 13.078125 C 57.15625 13.207031 56.882812 13.390625 56.648438 13.625 C 56.410156 13.863281 56.226562 14.136719 56.097656 14.449219 C 55.96875 14.757812 55.90625 15.078125 55.90625 15.414062 C 55.90625 15.75 55.96875 16.074219 56.097656 16.382812 C 56.226562 16.691406 56.410156 16.964844 56.648438 17.203125 C 56.882812 17.441406 57.15625 17.621094 57.46875 17.75 C 57.777344 17.878906 58.101562 17.945312 58.433594 17.945312 C 58.769531 17.945312 59.09375 17.878906 59.402344 17.75 C 59.710938 17.621094 59.984375 17.441406 60.222656 17.203125 C 60.460938 16.964844 60.644531 16.691406 60.769531 16.382812 C 60.898438 16.074219 60.964844 15.75 60.964844 15.414062 C 60.964844 15.078125 60.898438 14.757812 60.769531 14.449219 C 60.644531 14.136719 60.460938 13.863281 60.222656 13.625 C 59.984375 13.390625 59.710938 13.207031 59.402344 13.078125 C 59.09375 12.949219 58.769531 12.886719 58.433594 12.886719 Z M 58.433594 12.886719 " fill-opacity="1" fill-rule="nonzero"/></g><g clip-path="url(#76b1e39ee8)"><path fill="#00a5a5" d="M 60.964844 19.839844 C 60.796875 19.839844 60.636719 19.871094 60.480469 19.9375 C 60.324219 20 60.1875 20.09375 60.070312 20.210938 C 59.953125 20.328125 59.859375 20.464844 59.796875 20.621094 C 59.730469 20.777344 59.699219 20.9375 59.699219 21.105469 C 59.699219 21.273438 59.730469 21.433594 59.796875 21.589844 C 59.859375 21.742188 59.953125 21.878906 60.070312 22 C 60.1875 22.117188 60.324219 22.207031 60.480469 22.273438 C 60.636719 22.335938 60.796875 22.367188 60.964844 22.367188 C 61.132812 22.367188 61.292969 22.335938 61.449219 22.273438 C 61.601562 22.207031 61.738281 22.117188 61.859375 22 C 61.976562 21.878906 62.066406 21.742188 62.132812 21.589844 C 62.195312 21.433594 62.226562 21.273438 62.226562 21.105469 C 62.226562 20.9375 62.195312 20.777344 62.132812 20.621094 C 62.066406 20.464844 61.976562 20.328125 61.859375 20.210938 C 61.738281 20.09375 61.601562 20 61.449219 19.9375 C 61.292969 19.871094 61.132812 19.839844 60.964844 19.839844 Z M 60.964844 19.839844 " fill-opacity="1" fill-rule="nonzero"/></g><g clip-path="url(#139996645d)"><path fill="#fbcd59" d="M 57.171875 52.714844 C 57.003906 52.714844 56.839844 52.746094 56.6875 52.808594 C 56.53125 52.875 56.394531 52.964844 56.277344 53.085938 C 56.15625 53.203125 56.066406 53.339844 56.003906 53.496094 C 55.9375 53.648438 55.90625 53.808594 55.90625 53.976562 C 55.90625 54.144531 55.9375 54.308594 56.003906 54.460938 C 56.066406 54.617188 56.15625 54.753906 56.277344 54.871094 C 56.394531 54.992188 56.53125 55.082031 56.6875 55.144531 C 56.839844 55.210938 57.003906 55.242188 57.171875 55.242188 C 57.339844 55.242188 57.5 55.210938 57.65625 55.144531 C 57.808594 55.082031 57.945312 54.992188 58.066406 54.871094 C 58.183594 54.753906 58.273438 54.617188 58.339844 54.460938 C 58.402344 54.308594 58.433594 54.144531 58.433594 53.976562 C 58.433594 53.808594 58.402344 53.648438 58.339844 53.496094 C 58.273438 53.339844 58.183594 53.203125 58.066406 53.085938 C 57.945312 52.964844 57.808594 52.875 57.65625 52.808594 C 57.5 52.746094 57.339844 52.714844 57.171875 52.714844 Z M 15.445312 43.230469 C 15.109375 43.230469 14.789062 43.296875 14.480469 43.421875 C 14.167969 43.550781 13.894531 43.734375 13.660156 43.972656 C 13.421875 44.207031 13.238281 44.480469 13.109375 44.792969 C 12.980469 45.101562 12.917969 45.425781 12.917969 45.761719 C 12.917969 46.09375 12.980469 46.417969 13.109375 46.726562 C 13.238281 47.039062 13.421875 47.3125 13.660156 47.546875 C 13.894531 47.785156 14.167969 47.96875 14.480469 48.097656 C 14.789062 48.222656 15.109375 48.289062 15.445312 48.289062 C 15.78125 48.289062 16.105469 48.222656 16.414062 48.097656 C 16.722656 47.96875 16.996094 47.785156 17.234375 47.546875 C 17.472656 47.3125 17.65625 47.039062 17.78125 46.726562 C 17.910156 46.417969 17.976562 46.09375 17.976562 45.761719 C 17.976562 45.425781 17.910156 45.101562 17.78125 44.792969 C 17.65625 44.480469 17.472656 44.207031 17.234375 43.972656 C 16.996094 43.734375 16.722656 43.550781 16.414062 43.421875 C 16.105469 43.296875 15.78125 43.230469 15.445312 43.230469 Z M 15.445312 43.230469 " fill-opacity="1" fill-rule="nonzero"/></g><g clip-path="url(#2494297406)"><path fill="#00a5a5" d="M 21.769531 59.667969 C 21.601562 59.667969 21.441406 59.699219 21.285156 59.765625 C 21.128906 59.828125 20.992188 59.917969 20.875 60.039062 C 20.753906 60.15625 20.664062 60.292969 20.601562 60.449219 C 20.535156 60.601562 20.503906 60.765625 20.503906 60.933594 C 20.503906 61.101562 20.535156 61.261719 20.601562 61.417969 C 20.664062 61.570312 20.753906 61.707031 20.875 61.828125 C 20.992188 61.945312 21.128906 62.035156 21.285156 62.101562 C 21.441406 62.164062 21.601562 62.195312 21.769531 62.195312 C 21.9375 62.195312 22.097656 62.164062 22.253906 62.101562 C 22.40625 62.035156 22.542969 61.945312 22.664062 61.828125 C 22.78125 61.707031 22.871094 61.570312 22.9375 61.417969 C 23 61.261719 23.03125 61.101562 23.03125 60.933594 C 23.03125 60.765625 23 60.601562 22.9375 60.449219 C 22.871094 60.292969 22.78125 60.15625 22.664062 60.039062 C 22.542969 59.917969 22.40625 59.828125 22.253906 59.765625 C 22.097656 59.699219 21.9375 59.667969 21.769531 59.667969 Z M 21.769531 59.667969 " fill-opacity="1" fill-rule="nonzero"/></g><path fill="#ffffff" d="M 17.660156 38.171875 C 17.449219 38.171875 17.246094 38.214844 17.054688 38.292969 C 16.859375 38.375 16.691406 38.488281 16.542969 38.636719 C 16.394531 38.785156 16.277344 38.957031 16.199219 39.148438 C 16.117188 39.34375 16.078125 39.542969 16.078125 39.753906 C 16.078125 39.964844 16.117188 40.164062 16.199219 40.359375 C 16.277344 40.550781 16.394531 40.722656 16.542969 40.871094 C 16.691406 41.019531 16.859375 41.132812 17.054688 41.214844 C 17.246094 41.292969 17.449219 41.335938 17.660156 41.335938 C 17.867188 41.335938 18.070312 41.292969 18.265625 41.214844 C 18.457031 41.132812 18.628906 41.019531 18.777344 40.871094 C 18.925781 40.722656 19.039062 40.550781 19.121094 40.359375 C 19.199219 40.164062 19.238281 39.964844 19.238281 39.753906 C 19.238281 39.542969 19.199219 39.34375 19.121094 39.148438 C 19.039062 38.957031 18.925781 38.785156 18.777344 38.636719 C 18.628906 38.488281 18.457031 38.375 18.265625 38.292969 C 18.070312 38.214844 17.867188 38.171875 17.660156 38.171875 Z M 17.660156 38.171875 " fill-opacity="1" fill-rule="nonzero"/><path fill="#f1bc19" d="M 19.238281 47.65625 C 19.066406 47.65625 18.917969 47.71875 18.792969 47.839844 C 18.667969 47.964844 18.609375 48.113281 18.609375 48.289062 C 18.609375 48.464844 18.667969 48.613281 18.792969 48.734375 C 18.917969 48.859375 19.066406 48.921875 19.238281 48.921875 C 19.414062 48.921875 19.5625 48.859375 19.6875 48.734375 C 19.808594 48.613281 19.871094 48.464844 19.871094 48.289062 C 19.871094 48.113281 19.808594 47.964844 19.6875 47.839844 C 19.5625 47.71875 19.414062 47.65625 19.238281 47.65625 Z M 19.238281 47.65625 " fill-opacity="1" fill-rule="nonzero"/><path fill="#ffffff" d="M 56.539062 26.792969 C 56.363281 26.792969 56.214844 26.855469 56.089844 26.980469 C 55.96875 27.101562 55.90625 27.25 55.90625 27.425781 C 55.90625 27.601562 55.96875 27.75 56.089844 27.875 C 56.214844 27.996094 56.363281 28.058594 56.539062 28.058594 C 56.714844 28.058594 56.863281 27.996094 56.984375 27.875 C 57.109375 27.75 57.171875 27.601562 57.171875 27.425781 C 57.171875 27.25 57.109375 27.101562 56.984375 26.980469 C 56.863281 26.855469 56.714844 26.792969 56.539062 26.792969 Z M 56.539062 26.792969 " fill-opacity="1" fill-rule="nonzero"/><path fill="#fefdef" d="M 43.261719 21.738281 C 44.65625 21.738281 45.792969 22.871094 45.792969 24.265625 L 45.792969 50.816406 C 45.792969 52.210938 44.65625 53.347656 43.261719 53.347656 L 31.882812 53.347656 C 30.488281 53.347656 29.355469 52.210938 29.355469 50.816406 L 29.355469 24.265625 C 29.355469 22.871094 30.488281 21.738281 31.882812 21.738281 L 43.261719 21.738281 " fill-opacity="1" fill-rule="nonzero"/><path fill="#a2b3cb" d="M 34.410156 21.984375 L 40.734375 21.984375 L 40.734375 23.351562 L 34.410156 23.351562 Z M 34.410156 21.984375 " fill-opacity="1" fill-rule="nonzero"/><path fill="#472b29" d="M 33.148438 21.421875 L 33.148438 22.367188 C 33.148438 23.066406 33.714844 23.632812 34.410156 23.632812 L 40.734375 23.632812 C 41.433594 23.632812 42 23.066406 42 22.367188 L 42 21.421875 Z M 38.519531 23 C 38.347656 23 36.800781 23 36.625 23 C 36.449219 23 36.308594 22.859375 36.308594 22.683594 C 36.308594 22.511719 36.449219 22.367188 36.625 22.367188 C 36.800781 22.367188 38.347656 22.367188 38.519531 22.367188 C 38.695312 22.367188 38.835938 22.511719 38.835938 22.683594 C 38.835938 22.859375 38.695312 23 38.519531 23 Z M 39.785156 23 C 39.609375 23 39.46875 22.859375 39.46875 22.683594 C 39.46875 22.511719 39.609375 22.367188 39.785156 22.367188 C 39.960938 22.367188 40.101562 22.511719 40.101562 22.683594 C 40.101562 22.859375 39.960938 23 39.785156 23 Z M 41.761719 52.082031 L 33.386719 52.082031 C 33.253906 52.082031 33.148438 51.976562 33.148438 51.84375 C 33.148438 51.714844 33.253906 51.609375 33.386719 51.609375 L 41.761719 51.609375 C 41.890625 51.609375 42 51.714844 42 51.84375 C 42 51.976562 41.890625 52.082031 41.761719 52.082031 Z M 41.761719 52.082031 " fill-opacity="1" fill-rule="nonzero"/><path fill="#a2b3cb" d="M 37.570312 34.488281 C 37.804688 34.214844 38.183594 34.03125 38.511719 33.984375 C 38.558594 34.351562 38.417969 34.71875 38.230469 34.949219 C 37.992188 35.222656 37.664062 35.40625 37.285156 35.40625 C 37.191406 35.085938 37.332031 34.765625 37.570312 34.488281 Z M 37.570312 34.488281 " fill-opacity="1" fill-rule="nonzero"/><path fill="#472b29" d="M 37.285156 35.644531 C 37.183594 35.644531 37.089844 35.574219 37.058594 35.476562 C 36.953125 35.109375 37.066406 34.714844 37.390625 34.335938 C 37.648438 34.03125 38.066406 33.808594 38.480469 33.75 C 38.546875 33.742188 38.605469 33.757812 38.65625 33.796875 C 38.707031 33.835938 38.738281 33.894531 38.746094 33.957031 C 38.808594 34.425781 38.613281 34.855469 38.414062 35.097656 C 38.109375 35.453125 37.710938 35.644531 37.285156 35.644531 Z M 37.75 34.644531 C 37.636719 34.773438 37.519531 34.953125 37.496094 35.144531 C 37.703125 35.097656 37.894531 34.976562 38.050781 34.792969 C 38.140625 34.683594 38.234375 34.5 38.269531 34.289062 C 38.066406 34.367188 37.878906 34.496094 37.75 34.644531 Z M 37.75 34.644531 " fill-opacity="1" fill-rule="nonzero"/><path fill="#a2b3cb" d="M 39.621094 38.253906 C 39.59375 38.121094 39.578125 37.984375 39.578125 37.839844 C 39.578125 37.832031 39.816406 37.839844 39.816406 37.839844 C 39.816406 37.175781 40.328125 36.804688 40.496094 36.667969 L 40.515625 36.648438 L 40.359375 36.476562 C 39.992188 36.058594 39.453125 35.882812 38.984375 35.882812 C 38.359375 35.882812 38.199219 36.316406 37.675781 36.316406 C 37.207031 36.316406 36.898438 35.882812 36.378906 35.882812 C 35.855469 35.882812 35.328125 36.1875 34.96875 36.714844 C 34.753906 37.03125 34.648438 37.46875 34.648438 37.949219 C 34.648438 38.644531 34.851562 39.425781 35.289062 40.152344 C 35.566406 40.609375 35.957031 41.101562 36.480469 41.097656 C 36.953125 41.089844 36.960938 40.863281 37.628906 40.863281 C 38.242188 40.863281 38.359375 41.097656 38.828125 41.097656 C 39.296875 41.097656 39.75 40.550781 40.027344 40.105469 C 40.210938 39.808594 40.285156 39.636719 40.496094 39.273438 C 40.011719 39.074219 39.726562 38.710938 39.621094 38.253906 Z M 39.621094 38.253906 " fill-opacity="1" fill-rule="nonzero"/><path fill="#472b29" d="M 36.472656 41.335938 C 35.722656 41.335938 35.246094 40.539062 35.085938 40.277344 C 34.652344 39.550781 34.410156 38.726562 34.414062 37.949219 C 34.414062 37.398438 34.539062 36.929688 34.777344 36.582031 C 35.175781 35.996094 35.773438 35.644531 36.378906 35.644531 C 36.707031 35.644531 36.957031 35.78125 37.175781 35.898438 C 37.355469 35.996094 37.507812 36.078125 37.675781 36.078125 C 37.859375 36.078125 37.988281 36.003906 38.144531 35.910156 C 38.34375 35.792969 38.59375 35.644531 38.984375 35.644531 C 39.585938 35.644531 40.167969 35.898438 40.535156 36.320312 C 40.621094 36.417969 40.609375 36.566406 40.511719 36.652344 C 40.414062 36.738281 40.265625 36.730469 40.179688 36.632812 C 39.898438 36.308594 39.453125 36.117188 38.984375 36.117188 C 38.722656 36.117188 38.566406 36.210938 38.386719 36.316406 C 38.203125 36.425781 37.992188 36.554688 37.675781 36.554688 C 37.386719 36.554688 37.15625 36.425781 36.949219 36.316406 C 36.753906 36.210938 36.585938 36.117188 36.378906 36.117188 C 35.933594 36.117188 35.480469 36.390625 35.167969 36.847656 C 34.984375 37.117188 34.886719 37.496094 34.886719 37.949219 C 34.886719 38.640625 35.101562 39.378906 35.492188 40.03125 C 35.832031 40.59375 36.15625 40.882812 36.480469 40.859375 C 36.648438 40.859375 36.734375 40.824219 36.855469 40.777344 C 37.015625 40.710938 37.21875 40.628906 37.628906 40.628906 C 37.996094 40.628906 38.21875 40.707031 38.394531 40.769531 C 38.539062 40.820312 38.652344 40.859375 38.832031 40.859375 C 39.109375 40.859375 39.492188 40.523438 39.828125 39.980469 C 39.929688 39.8125 40 39.6875 40.078125 39.539062 C 40.105469 39.488281 40.136719 39.433594 40.167969 39.375 C 39.761719 39.136719 39.496094 38.773438 39.390625 38.304688 C 39.359375 38.160156 39.34375 38.003906 39.34375 37.839844 C 39.34375 37.835938 39.34375 37.773438 39.34375 37.765625 C 39.351562 37.636719 39.460938 37.535156 39.597656 37.546875 C 39.726562 37.554688 39.824219 37.667969 39.816406 37.796875 C 39.816406 37.96875 39.832031 38.089844 39.855469 38.199219 C 39.945312 38.601562 40.191406 38.890625 40.589844 39.050781 C 40.652344 39.078125 40.699219 39.128906 40.722656 39.195312 C 40.746094 39.257812 40.738281 39.328125 40.703125 39.390625 C 40.617188 39.539062 40.554688 39.65625 40.496094 39.765625 C 40.414062 39.917969 40.339844 40.054688 40.230469 40.230469 C 39.972656 40.644531 39.453125 41.335938 38.828125 41.335938 C 38.570312 41.335938 38.398438 41.273438 38.234375 41.21875 C 38.070312 41.15625 37.914062 41.101562 37.628906 41.101562 C 37.308594 41.101562 37.171875 41.15625 37.03125 41.214844 C 36.894531 41.269531 36.742188 41.332031 36.484375 41.335938 C 36.480469 41.335938 36.476562 41.335938 36.472656 41.335938 Z M 36.472656 41.335938 " fill-opacity="1" fill-rule="nonzero"/><path fill="#472b29" d="M 43.261719 21.988281 C 44.515625 21.988281 45.539062 23.011719 45.539062 24.265625 L 45.539062 50.816406 C 45.539062 52.070312 44.515625 53.09375 43.261719 53.09375 L 31.882812 53.09375 C 30.628906 53.09375 29.609375 52.070312 29.609375 50.816406 L 29.609375 24.265625 C 29.609375 23.011719 30.628906 21.988281 31.882812 21.988281 L 43.261719 21.988281 M 43.261719 21.105469 L 31.882812 21.105469 C 30.136719 21.105469 28.722656 22.519531 28.722656 24.265625 L 28.722656 50.816406 C 28.722656 52.5625 30.136719 53.976562 31.882812 53.976562 L 43.261719 53.976562 C 45.007812 53.976562 46.421875 52.5625 46.421875 50.816406 L 46.421875 24.265625 C 46.421875 22.519531 45.007812 21.105469 43.261719 21.105469 Z M 43.261719 21.105469 " fill-opacity="1" fill-rule="nonzero"/></svg>