<svg xmlns="http://www.w3.org/2000/svg" xmlns:xlink="http://www.w3.org/1999/xlink" width="100" zoomAndPan="magnify" viewBox="0 0 75 74.999997" height="100" preserveAspectRatio="xMidYMid meet" version="1.0"><defs><clipPath id="60b6a2561e"><path d="M 29 14.113281 L 46 14.113281 L 46 31 L 29 31 Z M 29 14.113281 " clip-rule="nonzero"/></clipPath><clipPath id="942f939195"><path d="M 14.113281 29 L 31 29 L 31 46 L 14.113281 46 Z M 14.113281 29 " clip-rule="nonzero"/></clipPath><clipPath id="6d44894109"><path d="M 29 44 L 46 44 L 46 60.613281 L 29 60.613281 Z M 29 44 " clip-rule="nonzero"/></clipPath><clipPath id="c51b71ac99"><path d="M 44 29 L 60.613281 29 L 60.613281 46 L 44 46 Z M 44 29 " clip-rule="nonzero"/></clipPath></defs><g clip-path="url(#60b6a2561e)"><path fill="#56616f" d="M 45.382812 22.132812 C 45.382812 26.558594 41.792969 30.148438 37.363281 30.148438 C 32.9375 30.148438 29.347656 26.558594 29.347656 22.132812 C 29.347656 17.703125 32.9375 14.113281 37.363281 14.113281 C 41.792969 14.113281 45.382812 17.703125 45.382812 22.132812 " fill-opacity="1" fill-rule="nonzero"/></g><g clip-path="url(#942f939195)"><path fill="#56616f" d="M 22.132812 29.347656 C 26.558594 29.347656 30.148438 32.9375 30.148438 37.363281 C 30.148438 41.792969 26.558594 45.382812 22.132812 45.382812 C 17.703125 45.382812 14.113281 41.792969 14.113281 37.363281 C 14.113281 32.9375 17.703125 29.347656 22.132812 29.347656 " fill-opacity="1" fill-rule="nonzero"/></g><g clip-path="url(#6d44894109)"><path fill="#56616f" d="M 29.347656 52.597656 C 29.347656 48.167969 32.9375 44.578125 37.363281 44.578125 C 41.792969 44.578125 45.382812 48.167969 45.382812 52.597656 C 45.382812 57.023438 41.792969 60.613281 37.363281 60.613281 C 32.9375 60.613281 29.347656 57.023438 29.347656 52.597656 " fill-opacity="1" fill-rule="nonzero"/></g><g clip-path="url(#c51b71ac99)"><path fill="#56616f" d="M 52.597656 45.382812 C 48.167969 45.382812 44.578125 41.792969 44.578125 37.363281 C 44.578125 32.9375 48.167969 29.347656 52.597656 29.347656 C 57.023438 29.347656 60.613281 32.9375 60.613281 37.363281 C 60.613281 41.792969 57.023438 45.382812 52.597656 45.382812 " fill-opacity="1" fill-rule="nonzero"/></g><path fill="#f2507f" d="M 52.597656 40.570312 C 50.828125 40.570312 49.390625 39.132812 49.390625 37.363281 C 49.390625 35.59375 50.828125 34.15625 52.597656 34.15625 C 54.367188 34.15625 55.804688 35.59375 55.804688 37.363281 C 55.804688 39.132812 54.367188 40.570312 52.597656 40.570312 Z M 52.597656 32.554688 C 49.945312 32.554688 47.785156 34.710938 47.785156 37.363281 C 47.785156 40.015625 49.945312 42.175781 52.597656 42.175781 C 55.25 42.175781 57.40625 40.015625 57.40625 37.363281 C 57.40625 34.710938 55.25 32.554688 52.597656 32.554688 " fill-opacity="1" fill-rule="nonzero"/><path fill="#e77cc4" d="M 25.339844 39.769531 C 25.339844 40.210938 24.976562 40.570312 24.535156 40.570312 L 19.726562 40.570312 C 19.285156 40.570312 18.925781 40.210938 18.925781 39.769531 L 18.925781 34.960938 C 18.925781 34.515625 19.285156 34.15625 19.726562 34.15625 L 24.535156 34.15625 C 24.976562 34.15625 25.339844 34.515625 25.339844 34.960938 Z M 24.535156 32.554688 L 19.726562 32.554688 C 18.398438 32.554688 17.320312 33.632812 17.320312 34.960938 L 17.320312 39.769531 C 17.320312 41.097656 18.398438 42.175781 19.726562 42.175781 L 24.535156 42.175781 C 25.863281 42.175781 26.941406 41.097656 26.941406 39.769531 L 26.941406 34.960938 C 26.941406 33.632812 25.863281 32.554688 24.535156 32.554688 " fill-opacity="1" fill-rule="nonzero"/><path fill="#a0da72" d="M 34.160156 24.535156 L 37.328125 18.910156 L 40.558594 24.535156 Z M 38.71875 18.109375 C 38.433594 17.617188 37.929688 17.320312 37.363281 17.320312 C 36.800781 17.320312 36.296875 17.617188 36.011719 18.109375 L 32.773438 23.730469 C 32.480469 24.230469 32.480469 24.851562 32.769531 25.351562 C 33.054688 25.847656 33.5625 26.140625 34.125 26.140625 L 40.601562 26.140625 C 41.167969 26.140625 41.671875 25.847656 41.957031 25.351562 C 42.246094 24.851562 42.246094 24.230469 41.957031 23.734375 L 38.71875 18.109375 " fill-opacity="1" fill-rule="nonzero"/><path fill="#74a7de" d="M 41.136719 48.824219 C 40.824219 48.511719 40.316406 48.511719 40.003906 48.824219 L 37.363281 51.464844 L 34.722656 48.824219 C 34.410156 48.511719 33.902344 48.511719 33.589844 48.824219 C 33.277344 49.136719 33.277344 49.644531 33.589844 49.957031 L 36.230469 52.597656 L 33.589844 55.238281 C 33.277344 55.550781 33.277344 56.058594 33.589844 56.371094 C 33.746094 56.527344 33.949219 56.605469 34.15625 56.605469 C 34.363281 56.605469 34.566406 56.527344 34.722656 56.371094 L 37.363281 53.730469 L 40.003906 56.371094 C 40.160156 56.527344 40.363281 56.605469 40.570312 56.605469 C 40.777344 56.605469 40.980469 56.527344 41.136719 56.371094 C 41.453125 56.058594 41.453125 55.550781 41.136719 55.238281 L 38.496094 52.597656 L 41.136719 49.957031 C 41.453125 49.644531 41.453125 49.136719 41.136719 48.824219 " fill-opacity="1" fill-rule="nonzero"/></svg>