<svg xmlns="http://www.w3.org/2000/svg" xmlns:xlink="http://www.w3.org/1999/xlink" width="50" zoomAndPan="magnify" viewBox="0 0 37.5 37.499999" height="50" preserveAspectRatio="xMidYMid meet" version="1.0"><defs><clipPath id="4466ec4c3d"><path d="M 21 20 L 30.910156 20 L 30.910156 31 L 21 31 Z M 21 20 " clip-rule="nonzero"/></clipPath><clipPath id="26248fe5f2"><path d="M 10 10 L 30.910156 10 L 30.910156 31 L 10 31 Z M 10 10 " clip-rule="nonzero"/></clipPath><clipPath id="afb44b4cd5"><path d="M 5.746094 4.1875 L 23 4.1875 L 23 33.054688 L 5.746094 33.054688 Z M 5.746094 4.1875 " clip-rule="nonzero"/></clipPath></defs><path fill="#000000" d="M 13.820312 14.136719 C 13.660156 14.296875 13.449219 14.386719 13.222656 14.386719 C 12.996094 14.386719 12.785156 14.296875 12.625 14.136719 L 10.535156 12.046875 L 10.402344 12.730469 C 10.195312 13.832031 10.554688 14.953125 11.363281 15.730469 C 12.011719 16.347656 12.867188 16.671875 13.769531 16.636719 C 14.210938 16.617188 14.636719 16.78125 14.933594 17.082031 L 17.40625 19.554688 C 17.480469 19.625 17.574219 19.664062 17.667969 19.664062 C 17.761719 19.664062 17.855469 19.625 17.925781 19.554688 C 18.070312 19.410156 18.070312 19.179688 17.925781 19.035156 L 15.453125 16.5625 C 15.011719 16.121094 14.386719 15.878906 13.742188 15.902344 C 13.035156 15.929688 12.375 15.679688 11.871094 15.199219 C 11.433594 14.78125 11.167969 14.230469 11.097656 13.648438 L 12.105469 14.65625 C 12.402344 14.957031 12.800781 15.121094 13.222656 15.121094 C 13.644531 15.121094 14.042969 14.957031 14.339844 14.65625 L 14.957031 14.042969 C 15.570312 13.425781 15.570312 12.421875 14.957031 11.808594 L 13.949219 10.800781 C 14.511719 10.867188 15.046875 11.121094 15.457031 11.53125 C 15.964844 12.039062 16.230469 12.714844 16.207031 13.433594 C 16.183594 14.089844 16.429688 14.722656 16.878906 15.175781 L 20.121094 18.414062 C 20.261719 18.558594 20.496094 18.558594 20.636719 18.414062 C 20.78125 18.269531 20.78125 18.039062 20.636719 17.894531 L 17.398438 14.65625 C 17.089844 14.347656 16.925781 13.910156 16.941406 13.460938 C 16.972656 12.550781 16.621094 11.65625 15.976562 11.011719 C 15.203125 10.242188 14.101562 9.902344 13.027344 10.105469 L 12.347656 10.234375 L 14.4375 12.328125 C 14.765625 12.65625 14.765625 13.191406 14.4375 13.523438 Z M 13.820312 14.136719 " fill-opacity="1" fill-rule="nonzero"/><path fill="#000000" d="M 28.769531 29.628906 L 29.929688 28.472656 L 29.929688 26.832031 L 28.769531 25.671875 L 27.128906 25.671875 L 25.96875 26.832031 L 25.96875 28.472656 L 27.128906 29.628906 Z M 26.703125 27.136719 L 27.433594 26.40625 L 28.464844 26.40625 L 29.195312 27.136719 L 29.195312 28.167969 L 28.464844 28.894531 L 27.433594 28.894531 L 26.703125 28.167969 Z M 26.703125 27.136719 " fill-opacity="1" fill-rule="nonzero"/><g clip-path="url(#4466ec4c3d)"><path fill="#000000" d="M 30.28125 25.320312 C 29.636719 24.675781 28.746094 24.320312 27.835938 24.355469 C 27.382812 24.367188 26.949219 24.203125 26.640625 23.898438 L 23.332031 20.585938 C 23.1875 20.445312 22.957031 20.445312 22.8125 20.585938 C 22.667969 20.730469 22.667969 20.964844 22.8125 21.105469 L 26.121094 24.414062 C 26.570312 24.867188 27.207031 25.113281 27.863281 25.089844 C 28.578125 25.066406 29.253906 25.332031 29.761719 25.839844 C 30.253906 26.332031 30.519531 26.984375 30.511719 27.683594 C 30.503906 28.378906 30.222656 29.027344 29.71875 29.507812 C 28.726562 30.453125 27.125 30.4375 26.148438 29.476562 C 25.636719 28.96875 25.359375 28.269531 25.386719 27.546875 C 25.414062 26.90625 25.167969 26.277344 24.714844 25.824219 L 22.359375 23.46875 C 22.214844 23.324219 21.984375 23.324219 21.839844 23.46875 C 21.695312 23.609375 21.695312 23.84375 21.839844 23.988281 L 24.195312 26.34375 C 24.503906 26.652344 24.671875 27.082031 24.65625 27.519531 C 24.617188 28.445312 24.972656 29.347656 25.632812 29.996094 C 26.269531 30.625 27.109375 30.941406 27.949219 30.941406 C 28.773438 30.941406 29.59375 30.640625 30.222656 30.039062 C 30.871094 29.421875 31.234375 28.585938 31.246094 27.691406 C 31.257812 26.796875 30.914062 25.953125 30.28125 25.320312 Z M 30.28125 25.320312 " fill-opacity="1" fill-rule="nonzero"/></g><g clip-path="url(#26248fe5f2)"><path fill="#000000" d="M 19.722656 20.070312 L 19.609375 19.960938 C 19.394531 19.746094 19.109375 19.625 18.800781 19.625 C 18.496094 19.625 18.210938 19.746094 17.996094 19.960938 C 17.769531 20.183594 17.648438 20.496094 17.664062 20.816406 C 17.667969 20.941406 17.609375 21.070312 17.496094 21.175781 L 11.253906 27.132812 C 10.835938 27.53125 10.605469 28.066406 10.597656 28.640625 C 10.589844 29.214844 10.808594 29.753906 11.214844 30.160156 C 11.617188 30.5625 12.148438 30.78125 12.710938 30.78125 C 12.722656 30.78125 12.730469 30.78125 12.738281 30.78125 C 13.3125 30.773438 13.847656 30.542969 14.246094 30.125 L 20.183594 23.898438 C 20.292969 23.785156 20.445312 23.71875 20.605469 23.71875 L 20.613281 23.71875 C 20.917969 23.714844 21.203125 23.597656 21.417969 23.382812 C 21.632812 23.167969 21.753906 22.878906 21.753906 22.574219 C 21.753906 22.269531 21.632812 21.984375 21.417969 21.765625 L 21.308594 21.65625 L 28.167969 14.792969 C 28.328125 14.867188 28.503906 14.898438 28.6875 14.890625 C 29.007812 14.867188 29.308594 14.710938 29.511719 14.453125 L 30.855469 12.734375 C 31.070312 12.457031 31.046875 12.0625 30.800781 11.816406 L 29.5625 10.578125 C 29.316406 10.332031 28.921875 10.304688 28.644531 10.523438 L 26.925781 11.867188 C 26.667969 12.070312 26.507812 12.371094 26.488281 12.691406 C 26.480469 12.871094 26.511719 13.050781 26.585938 13.210938 Z M 20.898438 22.285156 C 20.976562 22.363281 21.019531 22.464844 21.019531 22.574219 C 21.019531 22.683594 20.976562 22.785156 20.898438 22.863281 C 20.820312 22.941406 20.71875 22.984375 20.609375 22.984375 L 20.605469 22.984375 C 20.246094 22.984375 19.898438 23.132812 19.652344 23.390625 L 13.714844 29.621094 C 13.457031 29.890625 13.105469 30.042969 12.730469 30.046875 C 12.351562 30.058594 12 29.910156 11.734375 29.644531 C 11.46875 29.378906 11.324219 29.023438 11.332031 28.648438 C 11.335938 28.273438 11.488281 27.921875 11.757812 27.664062 L 18.003906 21.707031 C 18.265625 21.457031 18.410156 21.121094 18.394531 20.785156 C 18.390625 20.667969 18.433594 20.5625 18.515625 20.480469 C 18.589844 20.402344 18.695312 20.359375 18.800781 20.359375 C 18.910156 20.359375 19.015625 20.402344 19.09375 20.476562 L 19.203125 20.589844 Z M 27.578125 13.257812 L 27.316406 12.996094 C 27.25 12.929688 27.214844 12.835938 27.222656 12.738281 C 27.230469 12.625 27.285156 12.515625 27.378906 12.445312 L 29.070312 11.121094 L 30.257812 12.308594 L 28.933594 14 C 28.859375 14.09375 28.753906 14.148438 28.640625 14.15625 C 28.542969 14.160156 28.449219 14.128906 28.382812 14.0625 L 28.121094 13.800781 L 20.789062 21.136719 L 20.242188 20.589844 Z M 27.578125 13.257812 " fill-opacity="1" fill-rule="nonzero"/></g><path fill="#000000" d="M 18.914062 21.945312 L 12.984375 27.875 C 12.839844 28.019531 12.839844 28.25 12.984375 28.394531 C 13.054688 28.464844 13.148438 28.5 13.242188 28.5 C 13.335938 28.5 13.429688 28.464844 13.503906 28.394531 L 19.433594 22.464844 C 19.578125 22.320312 19.578125 22.085938 19.433594 21.945312 C 19.289062 21.800781 19.058594 21.800781 18.914062 21.945312 Z M 18.914062 21.945312 " fill-opacity="1" fill-rule="nonzero"/><g clip-path="url(#afb44b4cd5)"><path fill="#000000" d="M 22.015625 29.671875 C 21.8125 29.671875 21.648438 29.835938 21.648438 30.039062 L 21.648438 31.210938 C 21.648438 31.953125 21.082031 32.558594 20.386719 32.558594 L 7.742188 32.558594 C 7.046875 32.558594 6.480469 31.953125 6.480469 31.210938 L 6.480469 6.804688 C 6.480469 5.769531 7.273438 4.925781 8.25 4.925781 L 10.652344 4.925781 L 10.652344 5.65625 C 10.652344 6.527344 11.242188 7.238281 11.964844 7.238281 L 16.167969 7.238281 C 16.890625 7.238281 17.476562 6.527344 17.476562 5.65625 L 17.476562 4.925781 L 19.878906 4.925781 C 20.855469 4.925781 21.648438 5.769531 21.648438 6.804688 L 21.648438 10.625 C 21.648438 10.828125 21.8125 10.992188 22.015625 10.992188 C 22.21875 10.992188 22.382812 10.828125 22.382812 10.625 L 22.382812 6.804688 C 22.382812 5.363281 21.261719 4.195312 19.878906 4.195312 L 8.25 4.195312 C 6.867188 4.195312 5.746094 5.363281 5.746094 6.804688 L 5.746094 31.210938 C 5.746094 32.359375 6.640625 33.289062 7.742188 33.289062 L 20.386719 33.289062 C 21.488281 33.289062 22.382812 32.359375 22.382812 31.210938 L 22.382812 30.039062 C 22.382812 29.835938 22.21875 29.671875 22.015625 29.671875 Z M 16.742188 5.65625 C 16.742188 6.117188 16.480469 6.503906 16.167969 6.503906 L 11.964844 6.503906 C 11.648438 6.503906 11.386719 6.117188 11.386719 5.65625 L 11.386719 4.925781 L 16.742188 4.925781 Z M 16.742188 5.65625 " fill-opacity="1" fill-rule="nonzero"/></g></svg>