<svg xmlns="http://www.w3.org/2000/svg" xmlns:xlink="http://www.w3.org/1999/xlink" width="50" zoomAndPan="magnify" viewBox="0 0 37.5 37.499999" height="50" preserveAspectRatio="xMidYMid meet" version="1.0"><defs><clipPath id="f8efd5d747"><path d="M 5.410156 4.953125 L 28 4.953125 L 28 33.078125 L 5.410156 33.078125 Z M 5.410156 4.953125 " clip-rule="nonzero"/></clipPath><clipPath id="a1cd103c3b"><path d="M 21 10 L 31.3125 10 L 31.3125 18 L 21 18 Z M 21 10 " clip-rule="nonzero"/></clipPath></defs><g clip-path="url(#f8efd5d747)"><path fill="#000000" d="M 8.53125 5.46875 L 10.714844 5.46875 C 10.742188 5.171875 10.996094 4.953125 11.292969 4.953125 L 21.203125 4.953125 C 21.496094 4.953125 21.753906 5.183594 21.765625 5.46875 L 23.960938 5.46875 C 24.824219 5.46875 25.589844 5.832031 26.167969 6.386719 C 26.734375 6.953125 27.085938 7.738281 27.085938 8.601562 L 27.085938 11.207031 L 26.046875 11.8125 L 26.046875 8.613281 C 26.046875 8.046875 25.820312 7.507812 25.429688 7.140625 C 25.066406 6.765625 24.527344 6.519531 23.960938 6.519531 L 21.765625 6.519531 C 21.742188 6.820312 21.484375 7.046875 21.203125 7.046875 L 11.292969 7.046875 C 10.996094 7.046875 10.742188 6.820312 10.714844 6.519531 L 8.53125 6.519531 C 7.96875 6.519531 7.429688 6.75 7.050781 7.140625 C 6.6875 7.507812 6.445312 8.046875 6.445312 8.613281 L 6.445312 29.960938 C 6.445312 30.527344 6.675781 31.066406 7.050781 31.433594 C 7.429688 31.8125 7.953125 32.054688 8.53125 32.054688 L 23.976562 32.054688 C 24.539062 32.054688 25.078125 31.824219 25.441406 31.433594 C 25.820312 31.066406 26.0625 30.527344 26.0625 29.960938 L 26.0625 16.78125 L 27.097656 16.175781 L 27.097656 29.949219 C 27.097656 30.8125 26.734375 31.59375 26.183594 32.160156 C 25.617188 32.730469 24.835938 33.078125 23.976562 33.078125 L 8.53125 33.078125 C 7.671875 33.078125 6.890625 32.714844 6.324219 32.160156 C 5.757812 31.59375 5.410156 30.8125 5.410156 29.949219 L 5.410156 8.601562 C 5.410156 7.738281 5.757812 6.96875 6.324219 6.386719 C 6.890625 5.820312 7.671875 5.46875 8.53125 5.46875 Z M 8.53125 5.46875 " fill-opacity="1" fill-rule="nonzero"/></g><path fill="#000000" d="M 9.824219 20.078125 C 9.664062 19.929688 9.664062 19.6875 9.824219 19.539062 C 9.972656 19.375 10.214844 19.375 10.363281 19.539062 L 11.0625 20.238281 L 12.421875 17.890625 C 12.519531 17.714844 12.761719 17.648438 12.949219 17.753906 C 13.125 17.851562 13.191406 18.09375 13.082031 18.28125 L 11.507812 21.035156 C 11.480469 21.0625 11.46875 21.105469 11.425781 21.128906 C 11.28125 21.277344 11.035156 21.277344 10.890625 21.128906 L 9.824219 20.0625 Z M 9.824219 20.078125 " fill-opacity="1" fill-rule="nonzero"/><path fill="#000000" d="M 14.496094 20.050781 C 14.28125 20.050781 14.121094 19.886719 14.121094 19.671875 C 14.121094 19.457031 14.28125 19.292969 14.496094 19.292969 L 22.425781 19.292969 C 22.640625 19.292969 22.804688 19.457031 22.804688 19.671875 C 22.804688 19.886719 22.640625 20.050781 22.425781 20.050781 Z M 14.496094 20.050781 " fill-opacity="1" fill-rule="nonzero"/><path fill="#000000" d="M 9.824219 24.085938 C 9.664062 23.9375 9.664062 23.695312 9.824219 23.546875 C 9.972656 23.386719 10.214844 23.386719 10.363281 23.546875 L 11.0625 24.25 L 12.421875 21.898438 C 12.519531 21.726562 12.761719 21.65625 12.949219 21.765625 C 13.125 21.859375 13.191406 22.101562 13.082031 22.292969 L 11.507812 25.046875 C 11.480469 25.074219 11.46875 25.113281 11.425781 25.140625 C 11.28125 25.289062 11.035156 25.289062 10.890625 25.140625 L 9.824219 24.074219 Z M 9.824219 24.085938 " fill-opacity="1" fill-rule="nonzero"/><path fill="#000000" d="M 14.496094 24.0625 C 14.28125 24.0625 14.121094 23.898438 14.121094 23.683594 C 14.121094 23.464844 14.28125 23.304688 14.496094 23.304688 L 22.425781 23.304688 C 22.640625 23.304688 22.804688 23.464844 22.804688 23.683594 C 22.804688 23.898438 22.640625 24.0625 22.425781 24.0625 Z M 14.496094 24.0625 " fill-opacity="1" fill-rule="nonzero"/><path fill="#000000" d="M 9.824219 28.097656 C 9.664062 27.949219 9.664062 27.707031 9.824219 27.558594 C 9.972656 27.394531 10.214844 27.394531 10.363281 27.558594 L 11.0625 28.261719 L 12.421875 25.910156 C 12.519531 25.734375 12.761719 25.667969 12.949219 25.777344 C 13.125 25.871094 13.191406 26.113281 13.082031 26.289062 L 11.507812 29.054688 C 11.480469 29.082031 11.46875 29.125 11.425781 29.152344 C 11.28125 29.300781 11.035156 29.300781 10.890625 29.152344 L 9.824219 28.085938 Z M 9.824219 28.097656 " fill-opacity="1" fill-rule="nonzero"/><path fill="#000000" d="M 14.496094 28.070312 C 14.28125 28.070312 14.121094 27.910156 14.121094 27.691406 C 14.121094 27.476562 14.28125 27.300781 14.496094 27.300781 L 22.425781 27.300781 C 22.640625 27.300781 22.804688 27.476562 22.804688 27.691406 C 22.804688 27.910156 22.640625 28.070312 22.425781 28.070312 Z M 14.496094 28.070312 " fill-opacity="1" fill-rule="nonzero"/><path fill="#000000" d="M 16.261719 8.882812 C 18.226562 8.882812 19.816406 10.476562 19.816406 12.449219 C 19.816406 14.421875 18.226562 16.011719 16.261719 16.011719 C 14.296875 16.011719 12.707031 14.421875 12.707031 12.449219 C 12.707031 10.476562 14.296875 8.882812 16.261719 8.882812 Z M 16.261719 10.597656 C 16.828125 10.597656 17.296875 11.058594 17.296875 11.636719 C 17.296875 12.207031 16.839844 12.679688 16.261719 12.679688 C 15.695312 12.679688 15.222656 12.21875 15.222656 11.636719 C 15.222656 11.070312 15.683594 10.597656 16.261719 10.597656 Z M 15.546875 12.976562 L 16.972656 12.976562 C 17.648438 12.976562 18.1875 13.515625 18.1875 14.191406 L 18.1875 14.285156 L 14.335938 14.285156 L 14.335938 14.191406 C 14.335938 13.515625 14.875 12.976562 15.546875 12.976562 Z M 15.546875 12.976562 " fill-opacity="1" fill-rule="evenodd"/><g clip-path="url(#a1cd103c3b)"><path fill="#000000" d="M 30.035156 10.625 L 31.21875 12.679688 C 31.3125 12.839844 31.257812 13.042969 31.097656 13.136719 L 24.175781 17.148438 C 24.109375 17.1875 24.042969 17.203125 23.960938 17.1875 L 22.089844 16.90625 C 21.984375 16.890625 21.902344 16.835938 21.847656 16.742188 C 21.792969 16.648438 21.792969 16.554688 21.820312 16.457031 L 22.507812 14.691406 C 22.535156 14.621094 22.589844 14.554688 22.65625 14.527344 L 29.574219 10.519531 C 29.738281 10.421875 29.941406 10.476562 30.035156 10.640625 Z M 29.628906 11.207031 C 29.671875 11.289062 29.644531 11.382812 29.574219 11.421875 L 23.394531 15 C 23.316406 15.042969 23.222656 15.015625 23.179688 14.945312 C 23.140625 14.867188 23.167969 14.769531 23.234375 14.730469 L 29.414062 11.152344 C 29.496094 11.113281 29.589844 11.140625 29.628906 11.207031 Z M 29.628906 11.207031 " fill-opacity="1" fill-rule="evenodd"/></g></svg>