<svg xmlns="http://www.w3.org/2000/svg" xmlns:xlink="http://www.w3.org/1999/xlink" width="50" zoomAndPan="magnify" viewBox="0 0 37.5 37.499999" height="50" preserveAspectRatio="xMidYMid meet" version="1.0"><defs><clipPath id="2810f2ee03"><path d="M 13 10.324219 L 31 10.324219 L 31 26.605469 L 13 26.605469 Z M 13 10.324219 " clip-rule="nonzero"/></clipPath><clipPath id="42247b6869"><path d="M 3.699219 12 L 14 12 L 14 26.605469 L 3.699219 26.605469 Z M 3.699219 12 " clip-rule="nonzero"/></clipPath><clipPath id="3b963524c4"><path d="M 31 10.324219 L 33 10.324219 L 33 12 L 31 12 Z M 31 10.324219 " clip-rule="nonzero"/></clipPath><clipPath id="5f97abd828"><path d="M 32 10.324219 L 34 10.324219 L 34 12 L 32 12 Z M 32 10.324219 " clip-rule="nonzero"/></clipPath><clipPath id="a3e7bbc28c"><path d="M 35 15 L 36.09375 15 L 36.09375 17 L 35 17 Z M 35 15 " clip-rule="nonzero"/></clipPath></defs><g clip-path="url(#2810f2ee03)"><path fill="#000000" d="M 22.761719 10.328125 C 20.363281 10.328125 17.964844 10.328125 15.566406 10.328125 C 15.078125 10.328125 14.628906 10.4375 14.21875 10.71875 C 13.835938 10.988281 13.664062 11.316406 13.667969 11.785156 C 13.679688 13.632812 13.671875 15.480469 13.671875 17.324219 C 13.671875 19.332031 13.671875 21.335938 13.671875 23.34375 C 13.671875 23.464844 13.671875 23.589844 13.671875 23.710938 C 13.667969 23.835938 13.722656 23.910156 13.855469 23.910156 C 13.980469 23.910156 14.101562 23.910156 14.226562 23.910156 L 19.449219 23.910156 C 20.066406 23.910156 19.949219 23.886719 20.117188 24.363281 C 20.425781 25.242188 21.03125 25.804688 21.933594 26.058594 C 22.894531 26.328125 24.117188 25.890625 24.640625 25.054688 C 24.816406 24.769531 24.953125 24.472656 25.054688 24.15625 C 25.117188 23.960938 25.203125 23.90625 25.386719 23.90625 C 25.828125 23.914062 26.273438 23.898438 26.71875 23.914062 C 27.476562 23.941406 28.1875 23.28125 28.171875 22.496094 C 28.140625 20.71875 28.160156 18.941406 28.160156 17.164062 C 28.160156 17.09375 28.160156 17.023438 28.160156 16.953125 C 28.160156 16.824219 28.101562 16.757812 27.96875 16.765625 C 27.949219 16.765625 27.929688 16.765625 27.914062 16.765625 C 27.167969 16.765625 27.304688 16.71875 27.300781 17.332031 C 27.292969 18.917969 27.300781 20.5 27.300781 22.082031 C 27.300781 22.207031 27.308594 22.332031 27.296875 22.453125 C 27.257812 22.839844 27.113281 22.984375 26.722656 22.988281 C 26.28125 22.996094 25.835938 22.980469 25.390625 22.992188 C 25.171875 23 25.117188 22.90625 25.050781 22.703125 C 24.664062 21.515625 23.828125 20.828125 22.613281 20.777344 C 21.515625 20.734375 20.480469 21.421875 20.082031 22.585938 C 19.945312 22.984375 19.953125 22.988281 19.546875 22.992188 C 18.019531 22.992188 16.492188 22.992188 14.964844 22.992188 C 14.878906 22.992188 14.78125 23.011719 14.703125 22.980469 C 14.625 22.949219 14.570312 22.890625 14.539062 22.8125 C 14.511719 22.695312 14.53125 22.566406 14.53125 22.445312 C 14.53125 19.015625 14.53125 15.585938 14.53125 12.152344 C 14.53125 11.480469 14.761719 11.25 15.464844 11.25 C 17.402344 11.246094 19.335938 11.246094 21.273438 11.25 L 26.601562 11.25 C 26.726562 11.25 26.851562 11.242188 26.976562 11.253906 C 27.226562 11.269531 27.285156 11.316406 27.292969 11.570312 C 27.304688 11.9375 27.304688 12.308594 27.296875 12.675781 C 27.292969 12.851562 27.355469 12.929688 27.542969 12.929688 C 28.308594 12.921875 28.144531 12.980469 28.160156 12.367188 C 28.167969 12.085938 28.171875 11.804688 28.160156 11.523438 C 28.152344 11.316406 28.242188 11.246094 28.441406 11.246094 C 29.011719 11.253906 29.582031 11.253906 30.148438 11.25 C 30.496094 11.246094 30.496094 11.242188 30.503906 10.902344 C 30.503906 10.832031 30.507812 10.761719 30.503906 10.691406 C 30.496094 10.332031 30.496094 10.328125 30.109375 10.328125 C 27.65625 10.328125 25.207031 10.328125 22.757812 10.328125 Z M 24.238281 23.464844 C 24.238281 23.535156 24.242188 23.605469 24.238281 23.675781 C 24.15625 24.640625 23.082031 25.648438 21.808594 25.050781 C 21.113281 24.722656 20.613281 23.789062 21.003906 22.753906 C 21.402344 21.707031 22.679688 21.378906 23.5 21.980469 C 24 22.351562 24.261719 22.839844 24.238281 23.464844 Z M 24.238281 23.464844 " fill-opacity="1" fill-rule="nonzero"/></g><g clip-path="url(#42247b6869)"><path fill="#000000" d="M 9.980469 12.738281 C 9.484375 12.738281 8.988281 12.753906 8.492188 12.734375 C 7.859375 12.707031 7.347656 12.953125 6.917969 13.371094 C 6.632812 13.65625 6.371094 13.964844 6.132812 14.292969 C 5.617188 14.984375 5.105469 15.679688 4.621094 16.390625 C 4.210938 16.996094 3.960938 17.667969 3.972656 18.414062 C 3.984375 19.03125 3.976562 19.644531 3.976562 20.261719 C 3.976562 20.40625 3.980469 20.546875 3.777344 20.558594 C 3.617188 20.570312 3.570312 20.675781 3.570312 20.816406 C 3.570312 21.414062 3.535156 22.015625 3.582031 22.605469 C 3.644531 23.375 4.269531 23.898438 5.058594 23.910156 C 5.339844 23.914062 5.625 23.914062 5.910156 23.910156 C 6.097656 23.902344 6.179688 23.96875 6.226562 24.167969 C 6.402344 24.878906 6.8125 25.4375 7.460938 25.800781 C 8.910156 26.609375 10.648438 25.902344 11.203125 24.320312 C 11.339844 23.921875 11.328125 23.914062 11.730469 23.914062 C 12.085938 23.910156 12.441406 23.90625 12.792969 23.914062 C 12.984375 23.917969 13.046875 23.835938 13.035156 23.660156 C 13.03125 23.589844 13.035156 23.519531 13.035156 23.449219 C 13.035156 20.355469 13.027344 17.261719 13.042969 14.167969 C 13.046875 13.566406 12.800781 13.15625 12.285156 12.890625 C 12.113281 12.804688 11.929688 12.753906 11.738281 12.746094 C 11.152344 12.726562 10.566406 12.738281 9.980469 12.738281 Z M 7.171875 14.488281 C 7.550781 13.882812 7.851562 13.664062 8.339844 13.660156 C 9.425781 13.652344 10.507812 13.652344 11.589844 13.660156 C 11.988281 13.660156 12.132812 13.796875 12.171875 14.183594 C 12.179688 14.289062 12.175781 14.394531 12.175781 14.5 C 12.175781 17.15625 12.175781 19.808594 12.175781 22.464844 C 12.175781 22.570312 12.171875 22.675781 12.175781 22.78125 C 12.175781 22.910156 12.117188 22.976562 11.988281 22.984375 C 11.898438 22.988281 11.808594 22.988281 11.722656 22.988281 C 11.332031 22.988281 11.335938 22.988281 11.207031 22.625 C 11.0625 22.210938 10.878906 21.8125 10.535156 21.507812 C 9.8125 20.871094 9 20.597656 8.039062 20.871094 C 7.058594 21.144531 6.496094 21.816406 6.226562 22.75 C 6.175781 22.921875 6.113281 22.988281 5.945312 22.988281 C 5.625 22.984375 5.304688 22.996094 4.984375 22.984375 C 4.6875 22.972656 4.523438 22.820312 4.503906 22.535156 C 4.488281 22.25 4.496094 21.972656 4.503906 21.691406 C 4.503906 21.628906 4.542969 21.511719 4.574219 21.507812 C 4.945312 21.472656 4.828125 21.195312 4.835938 20.992188 C 4.847656 20.675781 4.839844 20.355469 4.839844 20.042969 C 4.839844 19.777344 4.839844 19.511719 4.84375 19.25 C 4.84375 19.058594 4.941406 18.957031 5.140625 18.964844 C 5.265625 18.96875 5.390625 18.964844 5.515625 18.964844 C 6.722656 18.964844 7.929688 18.972656 9.136719 18.964844 C 9.832031 18.960938 10.4375 18.402344 10.460938 17.722656 C 10.484375 17.070312 10.484375 16.421875 10.460938 15.769531 C 10.441406 15.109375 9.851562 14.546875 9.1875 14.53125 C 8.65625 14.519531 8.125 14.53125 7.589844 14.527344 C 7.457031 14.527344 7.324219 14.503906 7.171875 14.488281 Z M 7.097656 18.109375 C 6.476562 18.109375 5.855469 18.113281 5.238281 18.109375 C 4.921875 18.105469 4.871094 18.023438 4.980469 17.71875 C 5.007812 17.636719 5.050781 17.558594 5.085938 17.480469 C 5.378906 16.773438 5.914062 16.21875 6.320312 15.585938 C 6.425781 15.417969 6.601562 15.386719 6.785156 15.386719 C 7.542969 15.390625 8.300781 15.386719 9.058594 15.402344 C 9.382812 15.40625 9.53125 15.574219 9.539062 15.90625 C 9.546875 16.449219 9.546875 16.996094 9.539062 17.539062 C 9.527344 17.96875 9.386719 18.105469 8.960938 18.109375 C 8.339844 18.117188 7.71875 18.109375 7.097656 18.109375 Z M 7.050781 23.4375 C 7.050781 23.386719 7.050781 23.332031 7.050781 23.28125 C 7.070312 22.613281 7.453125 22.140625 7.992188 21.851562 C 8.53125 21.5625 9.109375 21.621094 9.652344 21.960938 C 10.53125 22.507812 10.558594 23.808594 10.140625 24.4375 C 9.871094 24.839844 9.535156 25.128906 9.046875 25.191406 C 7.910156 25.34375 7.042969 24.578125 7.050781 23.4375 Z M 7.050781 23.4375 " fill-opacity="1" fill-rule="nonzero"/></g><path fill="#000000" d="M 25.863281 14.210938 L 29.957031 14.210938 C 30.082031 14.210938 30.210938 14.226562 30.328125 14.203125 C 30.394531 14.1875 30.457031 14.113281 30.5 14.054688 C 30.523438 14.015625 30.507812 13.949219 30.507812 13.898438 C 30.503906 13.285156 30.550781 13.355469 29.972656 13.355469 C 27.226562 13.355469 24.480469 13.355469 21.730469 13.355469 C 21.625 13.355469 21.519531 13.359375 21.414062 13.355469 C 21.242188 13.347656 21.152344 13.40625 21.152344 13.59375 C 21.164062 14.320312 21.085938 14.207031 21.71875 14.210938 C 23.097656 14.21875 24.480469 14.210938 25.863281 14.210938 Z M 25.863281 14.210938 " fill-opacity="1" fill-rule="nonzero"/><path fill="#000000" d="M 28.855469 16.433594 C 29.902344 16.433594 30.949219 16.433594 32 16.433594 C 32.410156 16.433594 32.410156 16.429688 32.414062 16.035156 C 32.414062 15.945312 32.410156 15.859375 32.410156 15.769531 C 32.414062 15.640625 32.347656 15.578125 32.21875 15.578125 C 32.128906 15.578125 32.039062 15.578125 31.953125 15.578125 C 29.890625 15.578125 27.832031 15.578125 25.769531 15.578125 C 25.664062 15.578125 25.554688 15.570312 25.453125 15.589844 C 25.398438 15.601562 25.316406 15.671875 25.316406 15.714844 C 25.316406 15.9375 25.339844 16.164062 25.355469 16.386719 C 25.527344 16.402344 25.699219 16.429688 25.871094 16.433594 C 26.863281 16.4375 27.859375 16.433594 28.855469 16.433594 Z M 28.855469 16.433594 " fill-opacity="1" fill-rule="nonzero"/><path fill="#000000" d="M 21.871094 23.472656 C 21.878906 23.890625 22.136719 24.140625 22.570312 24.140625 C 23.015625 24.140625 23.277344 23.863281 23.261719 23.414062 C 23.25 23.011719 22.945312 22.746094 22.535156 22.761719 C 22.121094 22.78125 21.867188 23.050781 21.871094 23.472656 Z M 21.871094 23.472656 " fill-opacity="1" fill-rule="nonzero"/><path fill="#000000" d="M 8.746094 24.140625 C 9.171875 24.136719 9.417969 23.875 9.414062 23.4375 C 9.410156 23.019531 9.144531 22.777344 8.71875 22.753906 C 8.320312 22.734375 7.980469 23.089844 8.019531 23.492188 C 8.058594 23.902344 8.308594 24.148438 8.746094 24.140625 Z M 8.746094 24.140625 " fill-opacity="1" fill-rule="nonzero"/><g clip-path="url(#3b963524c4)"><path fill="#000000" d="M 31.089844 10.808594 C 31.089844 10.941406 31.136719 11.054688 31.234375 11.152344 C 31.328125 11.246094 31.445312 11.292969 31.578125 11.292969 C 31.714844 11.292969 31.828125 11.246094 31.925781 11.152344 C 32.019531 11.054688 32.066406 10.941406 32.066406 10.808594 C 32.066406 10.675781 32.019531 10.5625 31.925781 10.46875 C 31.828125 10.371094 31.714844 10.324219 31.578125 10.324219 C 31.445312 10.324219 31.328125 10.371094 31.234375 10.46875 C 31.136719 10.5625 31.089844 10.675781 31.089844 10.808594 Z M 31.089844 10.808594 " fill-opacity="1" fill-rule="nonzero"/></g><g clip-path="url(#5f97abd828)"><path fill="#000000" d="M 32.984375 10.808594 C 32.984375 10.941406 33.03125 11.054688 33.125 11.152344 C 33.222656 11.246094 33.335938 11.292969 33.472656 11.292969 C 33.605469 11.292969 33.722656 11.246094 33.816406 11.152344 C 33.914062 11.054688 33.960938 10.941406 33.960938 10.808594 C 33.960938 10.675781 33.914062 10.5625 33.816406 10.46875 C 33.722656 10.371094 33.605469 10.324219 33.472656 10.324219 C 33.335938 10.324219 33.222656 10.371094 33.125 10.46875 C 33.03125 10.5625 32.984375 10.675781 32.984375 10.808594 Z M 32.984375 10.808594 " fill-opacity="1" fill-rule="nonzero"/></g><path fill="#000000" d="M 31.578125 13.785156 C 31.578125 13.917969 31.625 14.03125 31.722656 14.128906 C 31.816406 14.222656 31.933594 14.269531 32.066406 14.269531 C 32.203125 14.269531 32.316406 14.222656 32.414062 14.128906 C 32.507812 14.03125 32.554688 13.917969 32.554688 13.785156 C 32.554688 13.652344 32.507812 13.539062 32.414062 13.441406 C 32.316406 13.347656 32.203125 13.300781 32.066406 13.300781 C 31.933594 13.300781 31.816406 13.347656 31.722656 13.441406 C 31.625 13.539062 31.578125 13.652344 31.578125 13.785156 Z M 31.578125 13.785156 " fill-opacity="1" fill-rule="nonzero"/><path fill="#000000" d="M 33.472656 16.007812 C 33.472656 16.140625 33.519531 16.253906 33.617188 16.347656 C 33.710938 16.445312 33.824219 16.492188 33.960938 16.492188 C 34.09375 16.492188 34.210938 16.445312 34.304688 16.347656 C 34.402344 16.253906 34.449219 16.140625 34.449219 16.007812 C 34.449219 15.875 34.402344 15.757812 34.304688 15.664062 C 34.210938 15.570312 34.09375 15.523438 33.960938 15.523438 C 33.824219 15.523438 33.710938 15.570312 33.617188 15.664062 C 33.519531 15.757812 33.472656 15.875 33.472656 16.007812 Z M 33.472656 16.007812 " fill-opacity="1" fill-rule="nonzero"/><g clip-path="url(#a3e7bbc28c)"><path fill="#000000" d="M 35.109375 16.007812 C 35.109375 16.140625 35.15625 16.253906 35.253906 16.347656 C 35.347656 16.445312 35.464844 16.492188 35.597656 16.492188 C 35.734375 16.492188 35.847656 16.445312 35.945312 16.347656 C 36.039062 16.253906 36.085938 16.140625 36.085938 16.007812 C 36.085938 15.875 36.039062 15.757812 35.945312 15.664062 C 35.847656 15.570312 35.734375 15.523438 35.597656 15.523438 C 35.464844 15.523438 35.347656 15.570312 35.253906 15.664062 C 35.15625 15.757812 35.109375 15.875 35.109375 16.007812 Z M 35.109375 16.007812 " fill-opacity="1" fill-rule="nonzero"/></g></svg>