<svg xmlns="http://www.w3.org/2000/svg" xmlns:xlink="http://www.w3.org/1999/xlink" width="50" zoomAndPan="magnify" viewBox="0 0 37.5 37.499999" height="50" preserveAspectRatio="xMidYMid meet" version="1.0"><defs><clipPath id="ee1720b760"><path d="M 4.589844 7 L 32.714844 7 L 32.714844 26 L 4.589844 26 Z M 4.589844 7 " clip-rule="nonzero"/></clipPath><clipPath id="6c5d38007e"><path d="M 10 28 L 27 28 L 27 29.933594 L 10 29.933594 Z M 10 28 " clip-rule="nonzero"/></clipPath></defs><g clip-path="url(#ee1720b760)"><path fill="#1b1919" d="M 31.488281 21.753906 L 5.820312 21.753906 L 5.820312 8.320312 C 5.820312 8.261719 5.867188 8.214844 5.929688 8.214844 L 31.378906 8.214844 C 31.4375 8.214844 31.488281 8.261719 31.488281 8.320312 Z M 21.46875 24.355469 C 21.335938 24.484375 21.152344 24.566406 20.953125 24.566406 L 16.355469 24.566406 C 15.953125 24.566406 15.625 24.242188 15.625 23.84375 C 15.625 23.644531 15.707031 23.464844 15.839844 23.335938 C 15.972656 23.207031 16.15625 23.125 16.355469 23.125 L 20.953125 23.125 C 21.355469 23.125 21.683594 23.445312 21.683594 23.84375 C 21.683594 24.042969 21.601562 24.222656 21.46875 24.355469 Z M 31.378906 7.003906 L 5.929688 7.003906 C 5.191406 7.003906 4.589844 7.59375 4.589844 8.320312 L 4.589844 24.277344 C 4.589844 25.003906 5.191406 25.59375 5.929688 25.59375 L 31.378906 25.59375 C 32.117188 25.59375 32.71875 25.003906 32.71875 24.277344 L 32.71875 8.320312 C 32.71875 7.59375 32.117188 7.003906 31.378906 7.003906 " fill-opacity="1" fill-rule="nonzero"/></g><path fill="#1b1919" d="M 21.3125 23.84375 C 21.3125 23.941406 21.277344 24.03125 21.207031 24.097656 C 21.140625 24.164062 21.046875 24.203125 20.953125 24.203125 L 16.355469 24.203125 C 16.15625 24.203125 15.996094 24.042969 15.996094 23.84375 C 15.996094 23.75 16.03125 23.660156 16.101562 23.589844 C 16.167969 23.523438 16.261719 23.488281 16.355469 23.488281 L 20.953125 23.488281 C 21.152344 23.488281 21.3125 23.648438 21.3125 23.84375 " fill-opacity="1" fill-rule="nonzero"/><g clip-path="url(#6c5d38007e)"><path fill="#1b1919" d="M 26.925781 29.917969 L 10.382812 29.917969 C 10.710938 28.96875 11.625 28.285156 12.699219 28.285156 L 24.609375 28.285156 C 25.683594 28.285156 26.597656 28.96875 26.925781 29.917969 " fill-opacity="1" fill-rule="nonzero"/></g><path fill="#1b1919" d="M 21.804688 27.847656 L 15.507812 27.847656 L 16.125 26.03125 L 21.183594 26.03125 L 21.804688 27.847656 " fill-opacity="1" fill-rule="nonzero"/></svg>