<svg xmlns="http://www.w3.org/2000/svg" xmlns:xlink="http://www.w3.org/1999/xlink" width="50" zoomAndPan="magnify" viewBox="0 0 37.5 37.499999" height="50" preserveAspectRatio="xMidYMid meet" version="1.0"><defs><clipPath id="4cfa807d96"><path d="M 10.835938 4.613281 L 26.378906 4.613281 L 26.378906 32.738281 L 10.835938 32.738281 Z M 10.835938 4.613281 " clip-rule="nonzero"/></clipPath></defs><g clip-path="url(#4cfa807d96)"><path fill="#1a1a1a" d="M 12.914062 4.621094 C 11.847656 4.621094 10.988281 5.652344 10.988281 6.933594 L 10.988281 9.625 C 10.902344 9.644531 10.835938 9.71875 10.835938 9.8125 L 10.835938 10.679688 C 10.835938 10.773438 10.902344 10.847656 10.988281 10.867188 L 10.988281 11.800781 C 10.902344 11.820312 10.835938 11.898438 10.835938 11.988281 L 10.835938 13.445312 C 10.835938 13.535156 10.902344 13.613281 10.988281 13.628906 L 10.988281 14.257812 C 10.902344 14.277344 10.835938 14.351562 10.835938 14.445312 L 10.835938 15.902344 C 10.835938 15.992188 10.902344 16.070312 10.988281 16.085938 L 10.988281 30.421875 C 10.988281 31.703125 11.847656 32.734375 12.914062 32.734375 L 24.226562 32.734375 C 25.292969 32.734375 26.152344 31.703125 26.152344 30.421875 L 26.152344 13.628906 C 26.164062 13.632812 26.175781 13.632812 26.1875 13.632812 C 26.292969 13.632812 26.378906 13.546875 26.378906 13.445312 L 26.378906 11.988281 C 26.378906 11.882812 26.292969 11.796875 26.1875 11.796875 C 26.175781 11.796875 26.164062 11.800781 26.152344 11.800781 L 26.152344 6.933594 C 26.152344 5.652344 25.292969 4.621094 24.226562 4.621094 Z M 18.570312 5.203125 C 18.71875 5.203125 18.792969 5.277344 18.792969 5.425781 C 18.792969 5.574219 18.71875 5.648438 18.570312 5.648438 C 18.421875 5.648438 18.347656 5.574219 18.347656 5.425781 C 18.347656 5.277344 18.421875 5.203125 18.570312 5.203125 Z M 15.578125 6.09375 C 15.648438 6.09375 15.707031 6.117188 15.753906 6.167969 C 15.804688 6.21875 15.828125 6.277344 15.828125 6.34375 C 15.828125 6.414062 15.804688 6.472656 15.753906 6.523438 C 15.707031 6.570312 15.648438 6.597656 15.578125 6.597656 C 15.507812 6.597656 15.449219 6.570312 15.402344 6.523438 C 15.351562 6.472656 15.328125 6.414062 15.328125 6.34375 C 15.328125 6.277344 15.351562 6.21875 15.402344 6.167969 C 15.449219 6.117188 15.507812 6.09375 15.578125 6.09375 Z M 17.109375 6.234375 L 20.105469 6.234375 C 20.167969 6.234375 20.214844 6.296875 20.214844 6.375 C 20.214844 6.453125 20.167969 6.515625 20.105469 6.515625 L 17.109375 6.515625 C 17.046875 6.515625 17 6.453125 17 6.375 C 17 6.296875 17.046875 6.234375 17.109375 6.234375 Z M 11.347656 7.773438 L 25.792969 7.773438 L 25.792969 29.582031 L 11.347656 29.582031 Z M 18.570312 30.085938 C 18.714844 30.085938 18.855469 30.113281 18.992188 30.171875 C 19.125 30.226562 19.246094 30.304688 19.347656 30.410156 C 19.453125 30.511719 19.53125 30.628906 19.585938 30.765625 C 19.644531 30.898438 19.671875 31.039062 19.671875 31.1875 C 19.671875 31.332031 19.644531 31.472656 19.585938 31.605469 C 19.53125 31.742188 19.453125 31.859375 19.347656 31.964844 C 19.246094 32.066406 19.125 32.144531 18.992188 32.203125 C 18.855469 32.257812 18.714844 32.285156 18.570312 32.285156 C 18.425781 32.285156 18.285156 32.257812 18.148438 32.203125 C 18.015625 32.144531 17.894531 32.066406 17.792969 31.964844 C 17.6875 31.859375 17.609375 31.742188 17.554688 31.605469 C 17.496094 31.472656 17.46875 31.332031 17.46875 31.1875 C 17.46875 31.039062 17.496094 30.898438 17.554688 30.765625 C 17.609375 30.628906 17.6875 30.511719 17.792969 30.410156 C 17.894531 30.304688 18.015625 30.226562 18.148438 30.171875 C 18.285156 30.113281 18.425781 30.085938 18.570312 30.085938 Z M 18.570312 30.085938 " fill-opacity="1" fill-rule="nonzero"/></g></svg>