<svg xmlns="http://www.w3.org/2000/svg" xmlns:xlink="http://www.w3.org/1999/xlink" width="50" zoomAndPan="magnify" viewBox="0 0 37.5 37.499999" height="50" preserveAspectRatio="xMidYMid meet" version="1.0"><defs><clipPath id="0de4c20a7e"><path d="M 8.179688 6 L 28.902344 6 L 28.902344 24 L 8.179688 24 Z M 8.179688 6 " clip-rule="nonzero"/></clipPath><clipPath id="2df6b56669"><path d="M 8.179688 22 L 28.902344 22 L 28.902344 31.652344 L 8.179688 31.652344 Z M 8.179688 22 " clip-rule="nonzero"/></clipPath></defs><g clip-path="url(#0de4c20a7e)"><path fill="#100f0d" d="M 26.050781 13.875 C 25.992188 13.667969 25.851562 13.5 25.652344 13.398438 C 25.695312 12.9375 25.632812 12.371094 25.523438 11.90625 C 25.429688 11.523438 25.28125 11.09375 25.058594 10.648438 C 24.824219 10.207031 24.53125 9.738281 24.121094 9.304688 C 23.734375 8.855469 23.230469 8.449219 22.667969 8.089844 C 17.738281 5.015625 10.933594 8.652344 11.460938 13.398438 C 11.261719 13.503906 11.125 13.667969 11.066406 13.871094 C 9.898438 13.894531 8.960938 14.746094 8.960938 15.796875 C 8.960938 16.851562 9.898438 17.707031 11.066406 17.726562 C 11.160156 18.058594 11.476562 18.308594 11.875 18.308594 C 12.347656 18.308594 12.730469 17.964844 12.730469 17.542969 L 12.730469 14.058594 C 12.730469 13.816406 12.597656 13.609375 12.40625 13.46875 C 12.621094 12.269531 13.253906 11 14.144531 10.214844 C 15.449219 8.960938 17.714844 8.238281 20.203125 8.785156 C 21.164062 9.066406 22.105469 9.539062 22.890625 10.292969 C 23.765625 11.066406 24.476562 12.226562 24.707031 13.46875 C 24.203125 13.835938 24.382812 14.152344 24.382812 17.542969 C 24.382812 17.808594 24.542969 18.03125 24.769531 18.167969 L 24.769531 18.464844 C 24.769531 18.648438 24.714844 18.832031 24.613281 18.992188 C 23.5 20.699219 23.425781 20.871094 21.742188 21.402344 C 21.214844 21.570312 20.617188 21.640625 20.011719 21.785156 C 19.453125 21.246094 18.472656 21.601562 18.472656 22.324219 C 18.472656 23.238281 19.921875 23.449219 20.203125 22.535156 C 20.613281 22.4375 21.03125 22.378906 21.425781 22.261719 C 23.597656 21.609375 24.308594 21.226562 25.457031 19.070312 C 25.566406 18.863281 25.625 18.636719 25.625 18.40625 L 25.625 18.21875 C 25.839844 18.117188 25.992188 17.941406 26.050781 17.726562 C 27.214844 17.703125 28.152344 16.851562 28.152344 15.796875 C 28.152344 14.746094 27.214844 13.894531 26.050781 13.875 " fill-opacity="1" fill-rule="nonzero"/></g><g clip-path="url(#2df6b56669)"><path fill="#100f0d" d="M 18.558594 26.332031 C 19.257812 25.371094 19.863281 24.542969 20.457031 23.707031 C 21.15625 22.730469 21.859375 22.414062 22.960938 22.777344 C 24.359375 23.242188 25.742188 23.761719 27.097656 24.34375 C 28.261719 24.839844 28.914062 25.730469 28.839844 27.050781 C 28.804688 27.699219 28.839844 28.351562 28.832031 29 C 28.808594 30.792969 27.976562 31.628906 26.171875 31.636719 C 23.839844 31.652344 21.507812 31.644531 19.175781 31.644531 C 16.46875 31.644531 13.757812 31.648438 11.046875 31.640625 C 9.109375 31.628906 8.292969 30.816406 8.28125 28.921875 C 8.277344 28.300781 8.3125 27.679688 8.273438 27.0625 C 8.1875 25.6875 8.90625 24.804688 10.09375 24.300781 C 11.449219 23.726562 12.839844 23.226562 14.242188 22.769531 C 15.4375 22.378906 15.808594 22.554688 16.546875 23.574219 C 17.183594 24.453125 17.828125 25.328125 18.558594 26.332031 " fill-opacity="1" fill-rule="nonzero"/></g><path fill="#100f0d" d="M 23.5 14.890625 C 23.371094 16.507812 22.851562 18.574219 21.125 20.164062 C 19.664062 21.515625 17.433594 21.546875 15.996094 20.167969 C 14.003906 18.253906 13.371094 15.816406 13.679688 13.191406 C 13.84375 11.816406 14.695312 10.730469 16.128906 10.273438 C 18.257812 9.585938 20.320312 9.519531 22.191406 10.984375 C 23.289062 11.835938 23.535156 13.007812 23.5 14.890625 " fill-opacity="1" fill-rule="nonzero"/></svg>